<svg width="1440" height="973" viewBox="0 0 1440 973" fill="none" xmlns="http://www.w3.org/2000/svg">
<g clip-path="url(#clip0_736_15966)">
<line x1="-232.354" y1="1117.65" x2="984.646" y2="-99.3535" stroke="#F6F6F6" stroke-dasharray="2 2"/>
<line x1="375.5" y1="1370" x2="375.5" y2="-351.098" stroke="#F6F6F6" stroke-dasharray="2 2"/>
<line x1="-630" y1="509.5" x2="1441" y2="509.5" stroke="#F6F6F6" stroke-dasharray="2 2"/>
<line x1="-231.646" y1="-99.3535" x2="985.354" y2="1117.65" stroke="#F6F6F6" stroke-dasharray="2 2"/>
<path d="M1187.82 580.291L762.224 1087.81L762.212 1087.8C540.989 1349.41 285.337 1495.94 189.326 1415.43C93.3168 1334.91 193.054 1057.64 412.119 794.217L412.108 794.208L837.705 286.689L1187.82 580.291Z" fill="#E3E3E3"/>
<path d="M1187.82 580.292L962.809 848.611L962.797 848.6C845.331 986.487 673.427 1033.14 577.417 952.629C481.407 872.116 497.394 694.713 612.704 555.018L612.692 555.008L837.7 286.69L1187.82 580.292Z" fill="#5E00FF"/>
<path d="M741.719 401.159L839.521 284.531L884.228 322.022C946.239 313.171 1011.61 329.71 1063.39 373.127C1115.16 416.544 1142.84 478.036 1144.93 540.64L1189.64 578.133L1089.96 696.998L1089.95 696.988C1008.57 791.839 865.795 803.756 769.785 723.244C673.775 642.731 660.632 500.065 739.852 403.406L739.842 403.397L741.338 401.612C741.402 401.537 741.464 401.46 741.528 401.385C741.591 401.309 741.655 401.234 741.719 401.159Z" fill="#D0FF00"/>
<path d="M1186.14 582.307C1267.21 485.625 1254.56 341.523 1157.88 260.447C1061.2 179.371 917.096 192.022 836.02 288.704C754.944 385.386 767.595 529.488 864.277 610.564C960.959 691.64 1105.06 678.988 1186.14 582.307Z" fill="white"/>
</g>
<defs>
<clipPath id="clip0_736_15966">
<rect width="1440" height="973" fill="white"/>
</clipPath>
</defs>
</svg>
