<svg width="1440" height="973" viewBox="0 0 1440 973" fill="none" xmlns="http://www.w3.org/2000/svg">
<g clip-path="url(#clip0_212_4362)">
<line x1="720.5" y1="-35" x2="720.5" y2="1021" stroke="black" stroke-dasharray="2 2"/>
<line x1="1735.81" y1="718.509" x2="-295" y2="718.508" stroke="black" stroke-dasharray="2 2"/>
<line x1="1438.76" y1="0.360633" x2="2.76264" y2="1436.36" stroke="black" stroke-dasharray="2 2"/>
<line x1="2.76273" y1="-0.353553" x2="1438.76" y2="1435.65" stroke="black" stroke-dasharray="2 2"/>
<path d="M1112.63 1109.63C1330.93 891.325 1330.93 537.386 1112.63 319.083C894.325 100.779 540.385 100.779 322.082 319.083C103.779 537.386 103.779 891.325 322.082 1109.63C540.385 1327.93 894.325 1327.93 1112.63 1109.63Z" stroke="black" stroke-miterlimit="10"/>
<path d="M1348.09 885.475C1566.4 667.172 1566.4 313.233 1348.09 94.9298C1129.79 -123.373 775.852 -123.373 557.549 94.9297C339.246 313.233 339.246 667.172 557.549 885.475C775.852 1103.78 1129.79 1103.78 1348.09 885.475Z" stroke="black" stroke-miterlimit="10"/>
<path d="M888.475 1345.09C1106.78 1126.79 1106.78 772.852 888.475 554.549C670.172 336.246 316.232 336.246 97.9294 554.549C-120.374 772.852 -120.374 1126.79 97.9295 1345.09C316.233 1563.4 670.172 1563.4 888.475 1345.09Z" stroke="black" stroke-miterlimit="10"/>
<path d="M1143.05 358.924L1053.88 448.099L1053.87 448.094C1007.56 494.031 956.629 517.568 939.759 500.699C922.889 483.829 946.426 432.901 992.363 386.584L992.359 386.58L1081.53 297.405L1143.05 358.924Z" fill="#E3E3E3"/>
<path d="M1143.05 358.924L1095.91 406.069L1095.9 406.064C1071.32 430.262 1037.95 436.251 1021.08 419.381C1004.21 402.511 1010.19 369.131 1034.39 344.555L1034.39 344.551L1081.53 297.405L1143.05 358.924Z" fill="#D0FF00"/>
<path d="M1089.77 304.884C1101.68 304.239 1113.8 308.462 1122.9 317.558C1132 326.655 1136.22 338.777 1135.57 350.685L1143.43 358.544L1122.55 379.43L1122.54 379.425C1105.53 396.061 1078.25 395.946 1061.38 379.077C1044.51 362.207 1044.4 334.93 1061.03 317.916L1061.03 317.912L1081.91 297.026L1089.77 304.884Z" fill="#5E00FF"/>
<path d="M1142.7 359.278C1159.69 342.29 1159.69 314.747 1142.7 297.759C1125.71 280.772 1098.17 280.772 1081.18 297.759C1064.19 314.747 1064.19 342.29 1081.18 359.278C1098.17 376.266 1125.71 376.266 1142.7 359.278Z" fill="black"/>
</g>
<defs>
<clipPath id="clip0_212_4362">
<rect width="1440" height="973" fill="white"/>
</clipPath>
</defs>
</svg>
