<svg width="711" height="182" viewBox="0 0 711 182" fill="none" xmlns="http://www.w3.org/2000/svg">
<rect x="0.5" y="0.5" width="710" height="181" fill="white" stroke="#171717"/>
<path d="M40.18 86V36.3H54.39L67.06 72.49L79.66 36.3H93.87V86H83.23V53.8L71.54 85.86H62.44L50.82 53.8V86H40.18ZM99.6991 86L117.619 36.3H130.219L148.139 86H137.079L133.439 75.43H114.329L110.689 86H99.6991ZM117.339 66.68H130.499L123.919 47.5L117.339 66.68ZM152.905 86V36.3H172.785C178.758 36.3 183.425 37.7467 186.785 40.64C190.191 43.5333 191.895 47.5 191.895 52.54C191.895 55.8533 191.125 58.7467 189.585 61.22C188.091 63.6467 185.898 65.5367 183.005 66.89C180.158 68.1967 176.751 68.85 172.785 68.85H163.545V86H152.905ZM163.545 59.89H172.155C174.955 59.89 177.125 59.2833 178.665 58.07C180.205 56.81 180.975 54.9667 180.975 52.54C180.975 50.16 180.205 48.3633 178.665 47.15C177.171 45.89 175.001 45.26 172.155 45.26H163.545V59.89ZM198.569 86V36.3H218.449C224.422 36.3 229.089 37.7467 232.449 40.64C235.855 43.5333 237.559 47.5 237.559 52.54C237.559 55.8533 236.789 58.7467 235.249 61.22C233.755 63.6467 231.562 65.5367 228.669 66.89C225.822 68.1967 222.415 68.85 218.449 68.85H209.209V86H198.569ZM209.209 59.89H217.819C220.619 59.89 222.789 59.2833 224.329 58.07C225.869 56.81 226.639 54.9667 226.639 52.54C226.639 50.16 225.869 48.3633 224.329 47.15C222.835 45.89 220.665 45.26 217.819 45.26H209.209V59.89ZM235.871 86L253.791 36.3H266.391L284.311 86H273.251L269.611 75.43H250.501L246.861 86H235.871ZM253.511 66.68H266.671L260.091 47.5L253.511 66.68ZM306.782 86V36.3H317.422V86H306.782ZM327.768 86V36.3H338.408V83.13L332.528 77.04H361.298V86H327.768ZM395.346 86V45.26H380.506V36.3H420.966V45.26H406.056V86H395.346ZM446.281 87.12C442.081 87.12 438.441 86.35 435.361 84.81C432.327 83.27 429.971 81.0767 428.291 78.23C426.611 75.3367 425.771 71.9533 425.771 68.08V36.23H436.411V68.08C436.411 71.3 437.251 73.7967 438.931 75.57C440.657 77.2967 443.107 78.16 446.281 78.16C449.454 78.16 451.881 77.2967 453.561 75.57C455.241 73.7967 456.081 71.3 456.081 68.08V36.23H466.721V68.08C466.721 71.9533 465.881 75.3367 464.201 78.23C462.567 81.0767 460.211 83.27 457.131 84.81C454.051 86.35 450.434 87.12 446.281 87.12ZM498.019 87.12C492.979 87.12 488.639 86.07 484.999 83.97C481.406 81.87 478.629 78.8833 476.669 75.01C474.756 71.1367 473.799 66.54 473.799 61.22C473.799 55.9 474.756 51.3033 476.669 47.43C478.629 43.51 481.406 40.5 484.999 38.4C488.639 36.2533 492.979 35.18 498.019 35.18C503.059 35.18 507.376 36.2533 510.969 38.4C514.609 40.5 517.386 43.51 519.299 47.43C521.259 51.3033 522.239 55.9 522.239 61.22C522.239 66.54 521.259 71.1367 519.299 75.01C517.386 78.8833 514.609 81.87 510.969 83.97C507.376 86.07 503.059 87.12 498.019 87.12ZM497.949 78.16C500.749 78.16 503.129 77.5067 505.089 76.2C507.096 74.8467 508.613 72.91 509.639 70.39C510.713 67.87 511.249 64.8133 511.249 61.22C511.249 57.6267 510.713 54.57 509.639 52.05C508.613 49.4833 507.096 47.5233 505.089 46.17C503.129 44.8167 500.749 44.14 497.949 44.14C495.196 44.14 492.839 44.8167 490.879 46.17C488.919 47.5233 487.403 49.4833 486.329 52.05C485.303 54.57 484.789 57.6267 484.789 61.22C484.789 64.8133 485.303 67.87 486.329 70.39C487.403 72.91 488.919 74.8467 490.879 76.2C492.886 77.5067 495.243 78.16 497.949 78.16ZM61.25 147.12C56.7233 147.12 52.6867 146.093 49.14 144.04C45.64 141.987 42.8867 139.023 40.88 135.15C38.92 131.277 37.94 126.633 37.94 121.22C37.94 115.947 38.8967 111.373 40.81 107.5C42.7233 103.58 45.4533 100.547 49 98.4C52.5467 96.2533 56.7 95.18 61.46 95.18C67.9467 95.18 72.9867 96.79 76.58 100.01C80.22 103.183 82.5533 107.733 83.58 113.66L72.52 114.08C71.96 110.953 70.7467 108.527 68.88 106.8C67.0133 105.027 64.54 104.14 61.46 104.14C58.8 104.14 56.5367 104.84 54.67 106.24C52.8033 107.64 51.38 109.623 50.4 112.19C49.42 114.757 48.93 117.767 48.93 121.22C48.93 124.72 49.42 127.753 50.4 130.32C51.4267 132.84 52.8733 134.777 54.74 136.13C56.6067 137.483 58.8233 138.16 61.39 138.16C64.75 138.16 67.34 137.227 69.16 135.36C71.0267 133.447 72.1933 130.81 72.66 127.45L83.79 127.87C83.1367 131.93 81.8533 135.383 79.94 138.23C78.0267 141.077 75.5067 143.27 72.38 144.81C69.3 146.35 65.59 147.12 61.25 147.12ZM113.566 147.12C108.526 147.12 104.186 146.07 100.546 143.97C96.9529 141.87 94.1763 138.883 92.2163 135.01C90.3029 131.137 89.3463 126.54 89.3463 121.22C89.3463 115.9 90.3029 111.303 92.2163 107.43C94.1763 103.51 96.9529 100.5 100.546 98.4C104.186 96.2533 108.526 95.18 113.566 95.18C118.606 95.18 122.923 96.2533 126.516 98.4C130.156 100.5 132.933 103.51 134.846 107.43C136.806 111.303 137.786 115.9 137.786 121.22C137.786 126.54 136.806 131.137 134.846 135.01C132.933 138.883 130.156 141.87 126.516 143.97C122.923 146.07 118.606 147.12 113.566 147.12ZM113.496 138.16C116.296 138.16 118.676 137.507 120.636 136.2C122.643 134.847 124.16 132.91 125.186 130.39C126.26 127.87 126.796 124.813 126.796 121.22C126.796 117.627 126.26 114.57 125.186 112.05C124.16 109.483 122.643 107.523 120.636 106.17C118.676 104.817 116.296 104.14 113.496 104.14C110.743 104.14 108.386 104.817 106.426 106.17C104.466 107.523 102.95 109.483 101.876 112.05C100.85 114.57 100.336 117.627 100.336 121.22C100.336 124.813 100.85 127.87 101.876 130.39C102.95 132.91 104.466 134.847 106.426 136.2C108.433 137.507 110.79 138.16 113.496 138.16ZM144.838 146V96.3H156.598L176.338 130.6V96.3H186.978V146H175.078L155.478 112.89V146H144.838ZM217.314 147.12C212.788 147.12 208.751 146.093 205.204 144.04C201.704 141.987 198.951 139.023 196.944 135.15C194.984 131.277 194.004 126.633 194.004 121.22C194.004 115.947 194.961 111.373 196.874 107.5C198.788 103.58 201.518 100.547 205.064 98.4C208.611 96.2533 212.764 95.18 217.524 95.18C224.011 95.18 229.051 96.79 232.644 100.01C236.284 103.183 238.618 107.733 239.644 113.66L228.584 114.08C228.024 110.953 226.811 108.527 224.944 106.8C223.078 105.027 220.604 104.14 217.524 104.14C214.864 104.14 212.601 104.84 210.734 106.24C208.868 107.64 207.444 109.623 206.464 112.19C205.484 114.757 204.994 117.767 204.994 121.22C204.994 124.72 205.484 127.753 206.464 130.32C207.491 132.84 208.938 134.777 210.804 136.13C212.671 137.483 214.888 138.16 217.454 138.16C220.814 138.16 223.404 137.227 225.224 135.36C227.091 133.447 228.258 130.81 228.724 127.45L239.854 127.87C239.201 131.93 237.918 135.383 236.004 138.23C234.091 141.077 231.571 143.27 228.444 144.81C225.364 146.35 221.654 147.12 217.314 147.12ZM246.83 146V96.3H281.41V105.26H257.47V116.67H280.57V125.49H257.47V137.04H281.97V146H246.83ZM290.17 146V96.3H310.05C316.024 96.3 320.69 97.7467 324.05 100.64C327.457 103.533 329.16 107.5 329.16 112.54C329.16 115.853 328.39 118.747 326.85 121.22C325.357 123.647 323.164 125.537 320.27 126.89C317.424 128.197 314.017 128.85 310.05 128.85H300.81V146H290.17ZM300.81 119.89H309.42C312.22 119.89 314.39 119.283 315.93 118.07C317.47 116.81 318.24 114.967 318.24 112.54C318.24 110.16 317.47 108.363 315.93 107.15C314.437 105.89 312.267 105.26 309.42 105.26H300.81V119.89ZM347.631 146V105.26H332.791V96.3H373.251V105.26H358.341V146H347.631Z" fill="#171717"/>
<mask id="mask0_601_12095" style="mask-type:luminance" maskUnits="userSpaceOnUse" x="558" y="34" width="114" height="114">
<path d="M663.941 34H565.419C561.322 34 558 37.3167 558 41.4082V139.789C558 143.88 561.322 147.197 565.419 147.197H663.941C668.038 147.197 671.36 143.88 671.36 139.789V41.4082C671.36 37.3167 668.038 34 663.941 34Z" fill="white"/>
</mask>
<g mask="url(#mask0_601_12095)">
<path d="M663.941 34H565.419C561.322 34 558 37.3167 558 41.4082V139.789C558 143.88 561.322 147.197 565.419 147.197H663.941C668.038 147.197 671.36 143.88 671.36 139.789V41.4082C671.36 37.3167 668.038 34 663.941 34Z" fill="#171717"/>
<path d="M671.36 34H558V147.197H671.36V34Z" stroke="white" stroke-miterlimit="10"/>
<path d="M648.881 67.1516C654.76 67.1516 659.527 62.392 659.527 56.5209C659.527 50.6497 654.76 45.8901 648.881 45.8901C643.001 45.8901 638.235 50.6497 638.235 56.5209C638.235 62.392 643.001 67.1516 648.881 67.1516Z" fill="white"/>
<path d="M591.147 162.354C617.837 162.354 639.474 140.749 639.474 114.097C639.474 87.4456 617.837 65.8403 591.147 65.8403C564.458 65.8403 542.821 87.4456 542.821 114.097C542.821 140.749 564.458 162.354 591.147 162.354Z" stroke="white" stroke-width="2" stroke-miterlimit="10"/>
<path d="M638.212 115.356C664.902 115.356 686.539 93.751 686.539 67.0996C686.539 40.4481 664.902 18.8428 638.212 18.8428C611.523 18.8428 589.886 40.4481 589.886 67.0996C589.886 93.751 611.523 115.356 638.212 115.356Z" stroke="white" stroke-width="2" stroke-miterlimit="10"/>
<path d="M614.68 138.855C641.37 138.855 663.006 117.25 663.006 90.5981C663.006 63.9466 641.37 42.3413 614.68 42.3413C587.99 42.3413 566.354 63.9466 566.354 90.5981C566.354 117.25 587.99 138.855 614.68 138.855Z" stroke="white" stroke-width="2" stroke-miterlimit="10"/>
<path d="M550.908 154.279L678.452 26.9253" stroke="white" stroke-width="2" stroke-miterlimit="10"/>
</g>
</svg>
