<svg width="1440" height="904" viewBox="0 0 1440 904" fill="none" xmlns="http://www.w3.org/2000/svg">
<g clip-path="url(#clip0_736_15966)">
<line x1="-21.3536" y1="896.487" x2="875.381" y2="-0.246909" stroke="#F6F6F6" stroke-dasharray="2 2"/>
<line x1="393.275" y1="985" x2="393.275" y2="-2.18557e-08" stroke="#F6F6F6" stroke-dasharray="2 2"/>
<line x1="-15.2246" y1="481.5" x2="1554.78" y2="481.5" stroke="#F6F6F6" stroke-dasharray="2 2"/>
<line x1="-16.288" y1="69.487" x2="898.969" y2="984.744" stroke="#F6F6F6" stroke-dasharray="2 2"/>
<path d="M1196.07 489.525L715.858 1062.17L715.843 1062.16C466.233 1357.34 177.775 1522.67 69.4444 1431.83C-38.8861 1340.98 73.6504 1028.13 320.827 730.903L320.814 730.891L801.024 158.248L1196.07 489.525Z" fill="#E3E3E3"/>
<path d="M1196.06 489.526L942.181 792.275L942.167 792.263C809.627 947.844 615.666 1000.49 507.335 909.642C399.004 818.798 417.044 618.63 547.15 461.009L547.137 460.998L801.018 158.248L1196.06 489.526Z" fill="#5E00FF"/>
<path d="M692.72 287.406L803.073 155.812L853.517 198.114C923.485 188.127 997.248 206.789 1055.67 255.778C1114.08 304.766 1145.31 374.148 1147.67 444.785L1198.12 487.089L1085.65 621.209L1085.63 621.197C993.812 728.219 832.719 741.666 724.388 650.822C616.058 559.977 601.229 399.005 690.615 289.942L690.602 289.932L692.292 287.916C692.363 287.831 692.434 287.746 692.505 287.661C692.576 287.576 692.648 287.491 692.72 287.406Z" fill="#D0FF00"/>
<path d="M1194.17 491.799C1285.65 382.711 1271.37 220.118 1162.28 128.638C1053.2 37.1584 890.603 51.433 799.123 160.521C707.643 269.61 721.917 432.202 831.006 523.682C940.094 615.162 1102.69 600.887 1194.17 491.799Z" fill="white"/>
</g>
<defs>
<clipPath id="clip0_736_15966">
<rect width="1440" height="904" fill="white"/>
</clipPath>
</defs>
</svg>
