<?xml version="1.0" encoding="UTF-8"?>
<svg id="Livello_2" data-name="Livello 2" xmlns="http://www.w3.org/2000/svg" viewBox="0 0 402.71 402.43">
  <g id="Livello_1-2" data-name="Livello 1">
    <path d="M244.93,398.06l-17.47,3.1-8.8.89-4.45.38h-25.1s-6.12-.48-6.12-.48c-43.72-4.02-84.63-22.12-117.06-51.66l-12.75-12.73C20.96,302.52,2.26,257.36.26,209.83c-.25-6-.43-11.8,0-17.73l.48-6.7c3.14-44.06,22.18-87.22,51.97-119.78,4.08-4.45,8.12-8.55,12.54-12.54l4.68-4.23C91.54,29.33,122.49,13.78,150.86,6.4c12.93-3.36,25.57-5.31,38.89-6.01,7.32-.38,14.45-.61,21.8-.1l4.89.34,13.31,1.31c29.47,4.17,57.61,14.72,82.42,31.11,8.58,5.67,16.37,11.59,23.92,18.49l15.81,15.84c29.06,32.49,46.57,73.31,50.28,116.73l.48,7.56.05,18.22-.29,5.4c-.88,16.62-3.98,32.91-9.43,48.57l-3.2,9.19-3.91,9.43c-7.64,18.43-18.68,35.06-31.68,50.22l-4.19,4.65-13.49,13.42c-25.9,23.5-57.25,39.62-91.6,47.3ZM204.31,124.59l17.36-.29,4.91-.28,5.29-.33,6.17-.45,5.73-.45,4.9-.39c2-.16,3.8-.4,5.63-.98-5.18-29.95-14.23-68.08-31.76-92.49l-5.67-6.69c-5.31-6.26-14.94-11.34-23.33-9.22-7.17,1.81-12.7,6.47-17.35,12.15-6.7,8.17-11.54,17.24-15.73,27.02-5.98,13.97-10.53,28.23-13.74,43.09l-2.12,9.8-2.83,15.81,9.94,1.27,4.8.42,5.3.42,5.73.44,6.58.45,7.09.45,11.46.26h11.66ZM129.3,119.26c3.1-19.51,7.38-37.82,13.52-56.04,2.87-8.52,6.17-16.3,10.08-24.34,3.76-7.72,8.28-14.45,13.54-21.62-6.35,1.76-11.72,4-17.42,6.79-33.54,16.4-58.54,47.76-73.42,81.75,12.28,4.41,24.11,7.79,36.47,10.16l17.24,3.3ZM294.85,115.18c9-1.76,17.5-4.28,26.29-7.27l-5.32-11.5c-7.75-15.1-16.94-29.06-28.46-41.52l-9.29-9.31c-9.38-8.49-19.61-15.8-31.01-21.35-5.81-2.83-11.37-5.39-17.65-6.82,4.54,6.25,8.43,11.66,11.72,18.02,13.62,25.95,20.87,55.6,25.53,84.72l11-1.53,4.61-.97,12.58-2.46ZM347.01,97.39l8.78-5.02c-19.95-27.82-46.26-49.85-77.88-63.65,9.53,8.19,17.99,16.18,25.72,25.75,12.02,14.89,21.69,31.12,29.17,48.78.99-.06,2.04-.23,2.81-.59l11.4-5.28ZM64.23,100.56c5.43-12.48,11.96-23.92,19.64-35.07,7.03-10.22,14.96-18.97,23.87-27.96-4.34,2.26-8.02,4.65-11.93,7.33-19.33,13.21-34.85,28.36-48.64,47.66l13.7,7.31c1.04.55,2.26.88,3.36.74ZM43.91,184.75c1.54-20.89,4.65-41.23,11.43-60.87l3.88-11.23-11.19-5.3-7.88-4.27c-14.56,24.35-23.7,50.96-26.51,79.03l-.51,6.68-.28,6.17,30.74-.02.32-10.19ZM390.04,194.96l-.37-8.45c-2.14-29.64-11.55-58.21-26.99-83.54-8.38,5-16.4,9.06-25.14,12.24,8.39,23.26,12.99,47.12,14.39,71.49l.26,8.26h37.84ZM123.6,174.01l.42-7.26.43-5.73.43-5.3.43-5.3.39-4.41,1.78-14.48c-17.74-2.89-34.88-6.56-51.56-12.39l-5.12-1.79c-7.22,19.71-11.88,40.19-13.74,61.3l-.47,7.44-.64,8.83,67.03.03.2-13.09.42-7.86ZM272.28,176.63l.38,7.96.22,10.37h66.49s-.09-9.25-.09-9.25l-.49-6.6c-1.53-20.41-6.07-40.2-12.99-59.59l-10.51,3.33c-15.55,4.31-31.05,7.64-46.92,9.67l1.69,13.15.5,5.19.42,5.31.41,5.28.46,7.48.43,7.69ZM258.18,153.84l-.37-3.85-1.76-15.85-16.69,1.69-5.74.42-7.03.37-10.84.4c-9.4.35-18.75.33-28.15,0l-11.28-.4-7.03-.37-5.76-.4-23.72-2.45-2.33,21.46-.5,6.15-.43,7.08-.31,7.03-.3,6.17-.11,13.66h124.24s-.18-14.33-.18-14.33l-.39-9.47-.42-6.6-.42-5.29-.46-5.42ZM59.12,290l-3.34-9.85c-6.68-20.28-10.31-41.16-11.89-62.42l-.21-10H12.86s.27,6.17.27,6.17l.53,6.69c2.77,27.99,11.85,54.65,26.59,79.02,6.18-3.53,12.34-6.81,18.86-9.61ZM124.67,244.54l-.47-6.38-.44-6.18-.33-6.17-.27-5.34-.18-12.73H55.89s.66,9.26.66,9.26l.37,4.93c1.64,21.61,6.29,42.69,13.91,63.31,18.82-6.47,37.18-10.96,56.68-14.04l-1.4-10.57-1.43-16.09ZM217.24,265.67l8.02.38,6.63.42,7.03.45,5.28.42,5.28.46c2.34.21,4.46.39,6.7.16l2.53-24.52.35-5.29.48-7.47.34-8.63.18-14.32h-124.24s.18,14.32.18,14.32l.35,8.62.48,7.9.35,5.76,2.67,25.03,15.82-1.79,6.14-.51,5.76-.39,7.46-.5,6.19-.29,5.34-.33,30.71.09ZM270.23,255.57l-1.78,14.49c16.09,2.45,31.52,5.12,46.72,9.83l10.58,3.28c7.06-19.33,11.55-39.24,13.01-59.63l.5-6.96.48-8.83h-66.85s-.18,8.81-.18,8.81l-.3,6.17-.33,7.02-.43,7.05-.48,7.49-.4,5.32-.54,5.96ZM362.76,299.67c16.01-26.22,24.9-54.78,27.06-84.55l.23-7.38h-37.84s-.27,7.82-.27,7.82c-1.36,24.5-5.95,48.56-14.36,71.89,8.79,3.42,16.93,7.39,25.18,12.22ZM215.13,382.21c22.23-20.87,34.44-70.91,39.04-101.15l-8.67-1.11-6.57-.51-6.64-.43-7.04-.32-5.34-.34-37.67.06-7.67.4-7.49.44-5.28.35-19.99,2.12,1.98,11.91c4.71,23.59,11.61,49.46,23.39,70.46,6.33,11.29,15.37,23.85,28.57,26,6.86,1.11,14.24-3.04,19.39-7.87ZM280.54,354.78c14.69-14.08,26.11-30.51,35.27-48.49l5.37-11.48c-16.55-5.48-33.09-8.99-50.09-11.7l-4.47-.39c-2.95,19.53-7.44,38.36-13.68,57.07-5.77,16.45-12.66,31.83-23.85,45.72,17.49-5.26,33.06-14.21,46.35-26.16l5.09-4.57ZM166.41,385.43c-4.86-6.59-8.77-12.25-12.24-18.97-13.1-25.64-20.27-54.63-24.84-82.87-18.63,2.78-36.25,7.22-53.74,13.29l5.63,11.75c17.98,34.62,46.7,65.08,85.18,76.81ZM277.9,373.94c19.28-8.15,35.86-19.77,51.17-33.27l11.93-11.89,14.71-18.61-21.66-10.84c-.59.13-1.48.54-1.66.8l-3.72,8.42c-7.58,15.71-16.64,30.45-28.26,43.46l-4.2,4.71c-5.6,6.27-11.88,11.45-18.3,17.21ZM95.69,357.75l11.56,7.05-8.73-9.21c-13.65-14.41-26.41-35.59-34.64-54.04l-16.61,8.45,4.29,6.2,7.34,9.01,4.62,5.05,8.58,8.63c7.42,6.87,14.76,13.48,23.59,18.86Z"/>
  </g>
</svg>