<svg width="231" height="138" viewBox="0 0 231 138" fill="none" xmlns="http://www.w3.org/2000/svg">
<path d="M207.406 30.0103V0.588501H217.955L223.798 26.2275H224.554V0.588501H230.018V30.0103H219.469L213.626 4.37131H212.87V30.0103H207.406Z" fill="white"/>
<path d="M190.434 30.5987C186.736 30.5987 183.793 29.5899 181.608 27.5725C179.422 25.5269 178.329 22.6128 178.329 18.83V11.7687C178.329 7.98592 179.422 5.08577 181.608 3.06828C183.793 1.02276 186.736 0 190.434 0C194.133 0 197.075 1.02276 199.261 3.06828C201.447 5.08577 202.539 7.98592 202.539 11.7687V18.83C202.539 22.6128 201.447 25.5269 199.261 27.5725C197.075 29.5899 194.133 30.5987 190.434 30.5987ZM190.434 25.639C192.508 25.639 194.119 25.0366 195.268 23.8317C196.417 22.6268 196.991 21.0156 196.991 18.9981V11.6006C196.991 9.58311 196.417 7.97191 195.268 6.76702C194.119 5.56213 192.508 4.95968 190.434 4.95968C188.389 4.95968 186.778 5.56213 185.601 6.76702C184.452 7.97191 183.877 9.58311 183.877 11.6006V18.9981C183.877 21.0156 184.452 22.6268 185.601 23.8317C186.778 25.0366 188.389 25.639 190.434 25.639Z" fill="white"/>
<path d="M167.919 30.0103V0.588501H173.468V30.0103H167.919Z" fill="white"/>
<path d="M150.019 30.0103V5.63224H141.444V0.588501H164.141V5.63224H155.567V30.0103H150.019Z" fill="white"/>
<path d="M117.262 30.0103L124.996 0.588501H134.663L142.397 30.0103H136.681L135.083 23.5375H124.576L122.978 30.0103H117.262ZM125.879 18.4097H133.78L130.208 4.07709H129.451L125.879 18.4097Z" fill="white"/>
<path d="M100.691 30.0103L93.2092 0.588501H98.9255L105.146 26.4377H105.735L111.955 0.588501H117.671L110.19 30.0103H100.691Z" fill="white"/>
<path d="M78.8301 30.5987C75.1313 30.5987 72.1891 29.5899 70.0035 27.5725C67.8179 25.5269 66.7251 22.6128 66.7251 18.83V11.7687C66.7251 7.98592 67.8179 5.08577 70.0035 3.06828C72.1891 1.02276 75.1313 0 78.8301 0C82.5288 0 85.471 1.02276 87.6566 3.06828C89.8422 5.08577 90.9351 7.98592 90.9351 11.7687V18.83C90.9351 22.6128 89.8422 25.5269 87.6566 27.5725C85.471 29.5899 82.5288 30.5987 78.8301 30.5987ZM78.8301 25.639C80.9036 25.639 82.5148 25.0366 83.6637 23.8317C84.8125 22.6268 85.3869 21.0156 85.3869 18.9981V11.6006C85.3869 9.58311 84.8125 7.97191 83.6637 6.76702C82.5148 5.56213 80.9036 4.95968 78.8301 4.95968C76.7846 4.95968 75.1734 5.56213 73.9965 6.76702C72.8476 7.97191 72.2732 9.58311 72.2732 11.6006V18.9981C72.2732 21.0156 72.8476 22.6268 73.9965 23.8317C75.1734 25.0366 76.7846 25.639 78.8301 25.639Z" fill="white"/>
<path d="M39.24 30.0103V0.588501H49.7898L55.6321 26.2275H56.3887V0.588501H61.8528V30.0103H51.3029L45.4606 4.37131H44.704V30.0103H39.24Z" fill="white"/>
<path d="M11.0825 30.0103V0.588501H21.6323L27.4746 26.2275H28.2312V0.588501H33.6952V30.0103H23.1454L17.3031 4.37131H16.5465V30.0103H11.0825Z" fill="white"/>
<path d="M0 30.0103V0.588501H5.54811V30.0103H0Z" fill="white"/>
<path d="M219.355 66.025C217.085 66.025 215.082 65.6187 213.345 64.8061C211.607 63.9935 210.248 62.8306 209.268 61.3175C208.287 59.8044 207.797 57.983 207.797 55.8534V54.6765H213.261V55.8534C213.261 57.6187 213.807 58.9497 214.9 59.8464C215.993 60.715 217.478 61.1493 219.355 61.1493C221.26 61.1493 222.676 60.7711 223.6 60.0145C224.553 59.2579 225.029 58.2912 225.029 57.1144C225.029 56.3018 224.791 55.6433 224.315 55.1389C223.866 54.6345 223.194 54.2282 222.297 53.92C221.429 53.5837 220.364 53.2755 219.103 52.9953L218.136 52.7851C216.119 52.3368 214.381 51.7764 212.924 51.1039C211.495 50.4034 210.388 49.4927 209.604 48.3719C208.847 47.251 208.469 45.794 208.469 44.0006C208.469 42.2073 208.889 40.6802 209.73 39.4192C210.599 38.1303 211.803 37.1495 213.345 36.4771C214.914 35.7765 216.749 35.4263 218.851 35.4263C220.952 35.4263 222.816 35.7905 224.441 36.5191C226.094 37.2196 227.383 38.2844 228.308 39.7134C229.26 41.1145 229.737 42.8798 229.737 45.0094V46.2703H224.273V45.0094C224.273 43.8885 224.049 42.9919 223.6 42.3194C223.18 41.6189 222.563 41.1145 221.751 40.8063C220.938 40.47 219.972 40.3019 218.851 40.3019C217.169 40.3019 215.923 40.6241 215.11 41.2686C214.325 41.8851 213.933 42.7397 213.933 43.8325C213.933 44.561 214.115 45.1775 214.479 45.6819C214.872 46.1863 215.446 46.6066 216.203 46.9428C216.959 47.2791 217.926 47.5733 219.103 47.8255L220.07 48.0356C222.171 48.484 223.993 49.0584 225.534 49.7589C227.103 50.4594 228.322 51.3841 229.19 52.533C230.059 53.6818 230.493 55.1529 230.493 56.9462C230.493 58.7396 230.031 60.3227 229.106 61.6958C228.21 63.0408 226.921 64.1055 225.239 64.8901C223.586 65.6467 221.625 66.025 219.355 66.025Z" fill="white"/>
<path d="M180.485 65.4366L188.219 36.0148H197.886L205.62 65.4366H199.903L198.306 58.9638H187.798L186.201 65.4366H180.485ZM189.101 53.836H197.003L193.431 39.5034H192.674L189.101 53.836Z" fill="white"/>
<path d="M159.722 65.4366V36.0148H165.27V60.3929H178.72V65.4366H159.722Z" fill="white"/>
<path d="M141.821 65.4366V41.0585H133.247V36.0148H155.944V41.0585H147.369V65.4366H141.821Z" fill="white"/>
<path d="M109.065 65.4366L116.799 36.0148H126.466L134.199 65.4366H128.483L126.886 58.9638H116.378L114.781 65.4366H109.065ZM117.681 53.836H125.583L122.01 39.5034H121.254L117.681 53.836Z" fill="white"/>
<path d="M227.476 123.205C227.044 123.205 226.656 123.121 226.314 122.953C225.978 122.779 225.711 122.533 225.512 122.215C225.32 121.896 225.224 121.518 225.224 121.08V118.882C225.224 118.408 225.317 118.006 225.503 117.675C225.69 117.345 225.951 117.093 226.287 116.919C226.629 116.739 227.035 116.649 227.503 116.649C227.965 116.649 228.359 116.733 228.683 116.901C229.013 117.063 229.262 117.288 229.43 117.576C229.605 117.858 229.692 118.186 229.692 118.558H228.953C228.953 118.186 228.833 117.885 228.593 117.657C228.353 117.423 227.989 117.306 227.503 117.306C227.011 117.306 226.629 117.441 226.359 117.711C226.089 117.976 225.954 118.342 225.954 118.81V119.684H226.08C226.188 119.504 226.368 119.339 226.62 119.188C226.873 119.032 227.224 118.954 227.674 118.954C228.052 118.954 228.398 119.038 228.71 119.206C229.022 119.375 229.271 119.612 229.457 119.918C229.644 120.224 229.737 120.587 229.737 121.008V121.116C229.737 121.542 229.638 121.911 229.439 122.224C229.247 122.536 228.98 122.779 228.638 122.953C228.296 123.121 227.908 123.205 227.476 123.205ZM227.476 122.548C227.932 122.548 228.302 122.419 228.584 122.161C228.866 121.902 229.007 121.551 229.007 121.107V121.035C229.007 120.735 228.941 120.476 228.809 120.26C228.683 120.044 228.506 119.876 228.278 119.756C228.049 119.63 227.782 119.567 227.476 119.567C227.176 119.567 226.912 119.63 226.683 119.756C226.455 119.876 226.275 120.044 226.143 120.26C226.017 120.476 225.954 120.735 225.954 121.035V121.107C225.954 121.551 226.095 121.902 226.377 122.161C226.659 122.419 227.026 122.548 227.476 122.548Z" fill="white"/>
<path d="M219.734 123.079V122.422C219.734 121.972 219.812 121.611 219.968 121.341C220.131 121.071 220.353 120.855 220.635 120.693C220.923 120.524 221.265 120.38 221.662 120.26L222.157 120.107C222.427 120.023 222.664 119.921 222.869 119.801C223.073 119.675 223.232 119.519 223.346 119.333C223.46 119.14 223.517 118.906 223.517 118.63V118.594C223.517 118.198 223.379 117.885 223.103 117.657C222.827 117.423 222.472 117.306 222.04 117.306C221.584 117.306 221.211 117.429 220.923 117.675C220.635 117.915 220.491 118.282 220.491 118.774V118.9H219.77V118.783C219.77 118.327 219.869 117.94 220.068 117.621C220.266 117.303 220.536 117.063 220.878 116.901C221.22 116.733 221.608 116.649 222.04 116.649C222.472 116.649 222.854 116.73 223.184 116.892C223.52 117.054 223.781 117.279 223.967 117.567C224.154 117.855 224.247 118.192 224.247 118.576V118.657C224.247 119.065 224.166 119.405 224.003 119.675C223.841 119.939 223.616 120.155 223.328 120.323C223.046 120.491 222.713 120.636 222.328 120.756L221.842 120.909C221.536 121.005 221.28 121.107 221.076 121.215C220.878 121.317 220.728 121.449 220.626 121.611C220.524 121.773 220.473 121.993 220.473 122.269V122.422H224.193V123.079H219.734Z" fill="white"/>
<path d="M216.369 123.205C215.655 123.205 215.084 122.995 214.658 122.575C214.238 122.149 214.027 121.512 214.027 120.666V119.188C214.027 118.348 214.238 117.714 214.658 117.288C215.084 116.862 215.655 116.649 216.369 116.649C217.09 116.649 217.66 116.862 218.08 117.288C218.507 117.714 218.72 118.348 218.72 119.188V120.666C218.72 121.512 218.507 122.149 218.08 122.575C217.66 122.995 217.09 123.205 216.369 123.205ZM216.369 122.548C216.91 122.548 217.315 122.386 217.585 122.062C217.855 121.737 217.99 121.284 217.99 120.702V119.143C217.99 118.561 217.852 118.111 217.576 117.792C217.3 117.468 216.898 117.306 216.369 117.306C215.841 117.306 215.439 117.468 215.162 117.792C214.892 118.117 214.757 118.567 214.757 119.143V120.702C214.757 121.29 214.892 121.746 215.162 122.071C215.433 122.389 215.835 122.548 216.369 122.548Z" fill="white"/>
<path d="M208.537 123.079V122.422C208.537 121.972 208.616 121.611 208.772 121.341C208.934 121.071 209.156 120.855 209.438 120.693C209.726 120.524 210.069 120.38 210.465 120.26L210.96 120.107C211.23 120.023 211.468 119.921 211.672 119.801C211.876 119.675 212.035 119.519 212.149 119.333C212.263 119.14 212.32 118.906 212.32 118.63V118.594C212.32 118.198 212.182 117.885 211.906 117.657C211.63 117.423 211.276 117.306 210.843 117.306C210.387 117.306 210.015 117.429 209.726 117.675C209.438 117.915 209.294 118.282 209.294 118.774V118.9H208.574V118.783C208.574 118.327 208.673 117.94 208.871 117.621C209.069 117.303 209.339 117.063 209.681 116.901C210.024 116.733 210.411 116.649 210.843 116.649C211.276 116.649 211.657 116.73 211.987 116.892C212.323 117.054 212.584 117.279 212.771 117.567C212.957 117.855 213.05 118.192 213.05 118.576V118.657C213.05 119.065 212.969 119.405 212.807 119.675C212.645 119.939 212.419 120.155 212.131 120.323C211.849 120.491 211.516 120.636 211.131 120.756L210.645 120.909C210.339 121.005 210.084 121.107 209.879 121.215C209.681 121.317 209.531 121.449 209.429 121.611C209.327 121.773 209.276 121.993 209.276 122.269V122.422H212.996V123.079H208.537Z" fill="white"/>
<path d="M202.962 123.205C202.518 123.205 202.125 123.112 201.782 122.926C201.446 122.74 201.182 122.479 200.99 122.142C200.804 121.8 200.711 121.398 200.711 120.936V120.819C200.711 120.362 200.804 119.963 200.99 119.621C201.182 119.278 201.446 119.014 201.782 118.828C202.125 118.642 202.518 118.549 202.962 118.549C203.407 118.549 203.797 118.642 204.133 118.828C204.475 119.014 204.74 119.278 204.926 119.621C205.118 119.963 205.214 120.362 205.214 120.819V120.936C205.214 121.398 205.118 121.8 204.926 122.142C204.74 122.479 204.475 122.74 204.133 122.926C203.797 123.112 203.407 123.205 202.962 123.205ZM202.962 122.566C203.431 122.566 203.803 122.419 204.079 122.124C204.361 121.824 204.503 121.422 204.503 120.918V120.837C204.503 120.332 204.361 119.933 204.079 119.639C203.803 119.338 203.431 119.188 202.962 119.188C202.5 119.188 202.128 119.338 201.846 119.639C201.563 119.933 201.422 120.332 201.422 120.837V120.918C201.422 121.422 201.563 121.824 201.846 122.124C202.128 122.419 202.5 122.566 202.962 122.566Z" fill="white"/>
<path d="M198.719 123.079V118.675H199.431V123.079H198.719ZM199.079 117.991C198.923 117.991 198.791 117.94 198.683 117.837C198.581 117.735 198.53 117.606 198.53 117.45C198.53 117.288 198.581 117.156 198.683 117.054C198.791 116.952 198.923 116.901 199.079 116.901C199.235 116.901 199.365 116.952 199.467 117.054C199.569 117.156 199.62 117.288 199.62 117.45C199.62 117.606 199.569 117.735 199.467 117.837C199.365 117.94 199.235 117.991 199.079 117.991Z" fill="white"/>
<path d="M196.512 123.079V116.775H197.223V123.079H196.512Z" fill="white"/>
<path d="M190.517 120.9V120.773C190.517 120.311 190.61 119.915 190.796 119.585C190.982 119.254 191.234 118.999 191.552 118.819C191.871 118.639 192.219 118.549 192.597 118.549C193.06 118.549 193.414 118.639 193.66 118.819C193.912 118.993 194.098 119.188 194.218 119.404H194.345V118.675H195.02V124.106C195.02 124.346 194.954 124.535 194.822 124.673C194.69 124.811 194.498 124.881 194.245 124.881H191.255V124.25H194.056C194.236 124.25 194.327 124.16 194.327 123.98V122.305H194.2C194.128 122.437 194.026 122.566 193.894 122.692C193.762 122.818 193.591 122.923 193.381 123.007C193.171 123.085 192.909 123.124 192.597 123.124C192.219 123.124 191.871 123.034 191.552 122.854C191.234 122.674 190.982 122.419 190.796 122.088C190.61 121.752 190.517 121.356 190.517 120.9ZM192.786 122.494C193.243 122.494 193.612 122.35 193.894 122.061C194.182 121.773 194.327 121.377 194.327 120.873V120.8C194.327 120.29 194.182 119.894 193.894 119.612C193.612 119.323 193.243 119.179 192.786 119.179C192.336 119.179 191.964 119.323 191.67 119.612C191.381 119.894 191.237 120.29 191.237 120.8V120.873C191.237 121.377 191.381 121.773 191.67 122.061C191.964 122.35 192.336 122.494 192.786 122.494Z" fill="white"/>
<path d="M186.902 123.16C186.584 123.16 186.29 123.091 186.02 122.953C185.755 122.815 185.545 122.611 185.389 122.341C185.239 122.065 185.164 121.731 185.164 121.341V118.675H185.876V121.287C185.876 121.725 185.984 122.044 186.2 122.242C186.422 122.44 186.719 122.539 187.091 122.539C187.512 122.539 187.857 122.401 188.127 122.125C188.397 121.848 188.533 121.437 188.533 120.891V118.675H189.244V123.079H188.551V122.332H188.424C188.328 122.542 188.163 122.734 187.929 122.908C187.695 123.076 187.353 123.16 186.902 123.16Z" fill="white"/>
<path d="M180.309 123.079V116.775H181.066V122.395H184.254V123.079H180.309Z" fill="white"/>
<path d="M227.414 111.797C226.97 111.797 226.577 111.704 226.234 111.518C225.898 111.332 225.634 111.071 225.442 110.734C225.256 110.392 225.163 109.99 225.163 109.527V109.41C225.163 108.954 225.256 108.555 225.442 108.212C225.634 107.87 225.898 107.606 226.234 107.42C226.577 107.234 226.97 107.141 227.414 107.141C227.859 107.141 228.249 107.234 228.585 107.42C228.927 107.606 229.192 107.87 229.378 108.212C229.57 108.555 229.666 108.954 229.666 109.41V109.527C229.666 109.99 229.57 110.392 229.378 110.734C229.192 111.071 228.927 111.332 228.585 111.518C228.249 111.704 227.859 111.797 227.414 111.797ZM227.414 111.158C227.883 111.158 228.255 111.01 228.531 110.716C228.813 110.416 228.954 110.014 228.954 109.509V109.428C228.954 108.924 228.813 108.525 228.531 108.23C228.255 107.93 227.883 107.78 227.414 107.78C226.952 107.78 226.58 107.93 226.297 108.23C226.015 108.525 225.874 108.924 225.874 109.428V109.509C225.874 110.014 226.015 110.416 226.297 110.716C226.58 111.01 226.952 111.158 227.414 111.158Z" fill="white"/>
<path d="M219.855 111.671V107.266H220.549V108.014H220.675C220.771 107.804 220.933 107.615 221.161 107.447C221.395 107.272 221.738 107.185 222.188 107.185C222.518 107.185 222.812 107.254 223.071 107.393C223.335 107.531 223.545 107.735 223.701 108.005C223.857 108.275 223.935 108.608 223.935 109.005V111.671H223.224V109.059C223.224 108.62 223.113 108.302 222.89 108.104C222.674 107.906 222.38 107.807 222.008 107.807C221.581 107.807 221.233 107.945 220.963 108.221C220.699 108.497 220.567 108.909 220.567 109.455V111.671H219.855Z" fill="white"/>
<path d="M216.026 111.797C215.719 111.797 215.44 111.743 215.188 111.635C214.936 111.527 214.738 111.371 214.593 111.167C214.449 110.962 214.377 110.713 214.377 110.419C214.377 110.119 214.449 109.873 214.593 109.681C214.738 109.482 214.936 109.335 215.188 109.239C215.44 109.137 215.722 109.086 216.035 109.086H217.521V108.762C217.521 108.45 217.428 108.203 217.241 108.023C217.061 107.843 216.791 107.753 216.431 107.753C216.077 107.753 215.8 107.84 215.602 108.014C215.404 108.182 215.269 108.411 215.197 108.699L214.53 108.483C214.602 108.236 214.717 108.014 214.873 107.816C215.029 107.612 215.236 107.45 215.494 107.33C215.758 107.204 216.074 107.141 216.44 107.141C217.004 107.141 217.443 107.288 217.755 107.582C218.067 107.87 218.223 108.278 218.223 108.807V110.797C218.223 110.977 218.307 111.068 218.475 111.068H218.881V111.671H218.259C218.061 111.671 217.902 111.617 217.782 111.509C217.662 111.395 217.602 111.245 217.602 111.059V111.013H217.494C217.428 111.128 217.337 111.248 217.223 111.374C217.115 111.494 216.965 111.593 216.773 111.671C216.581 111.755 216.332 111.797 216.026 111.797ZM216.107 111.185C216.527 111.185 216.866 111.062 217.124 110.815C217.389 110.563 217.521 110.212 217.521 109.762V109.662H216.062C215.779 109.662 215.545 109.726 215.359 109.852C215.179 109.972 215.089 110.155 215.089 110.401C215.089 110.647 215.182 110.839 215.368 110.977C215.56 111.116 215.806 111.185 216.107 111.185Z" fill="white"/>
<path d="M212.467 111.671V105.366H213.178V111.671H212.467Z" fill="white"/>
<path d="M210.259 111.671V107.267H210.97V111.671H210.259ZM210.619 106.582C210.463 106.582 210.331 106.531 210.223 106.429C210.121 106.327 210.07 106.198 210.07 106.042C210.07 105.879 210.121 105.747 210.223 105.645C210.331 105.543 210.463 105.492 210.619 105.492C210.775 105.492 210.904 105.543 211.006 105.645C211.108 105.747 211.16 105.879 211.16 106.042C211.16 106.198 211.108 106.327 211.006 106.429C210.904 106.531 210.775 106.582 210.619 106.582Z" fill="white"/>
<path d="M202.51 111.671V107.266H203.204V107.816H203.33C203.414 107.66 203.552 107.516 203.744 107.384C203.936 107.251 204.207 107.185 204.555 107.185C204.897 107.185 205.173 107.26 205.383 107.411C205.6 107.561 205.756 107.744 205.852 107.96H205.978C206.08 107.744 206.233 107.561 206.437 107.411C206.647 107.26 206.939 107.185 207.311 107.185C207.605 107.185 207.863 107.245 208.085 107.366C208.308 107.486 208.482 107.66 208.608 107.888C208.74 108.11 208.806 108.377 208.806 108.69V111.671H208.094V108.753C208.094 108.458 208.007 108.227 207.833 108.059C207.665 107.885 207.428 107.798 207.122 107.798C206.797 107.798 206.53 107.903 206.32 108.113C206.116 108.323 206.014 108.626 206.014 109.023V111.671H205.302V108.753C205.302 108.458 205.215 108.227 205.041 108.059C204.873 107.885 204.636 107.798 204.33 107.798C204.005 107.798 203.738 107.903 203.528 108.113C203.324 108.323 203.222 108.626 203.222 109.023V111.671H202.51Z" fill="white"/>
<path d="M197.989 111.671V107.267H198.701V111.671H197.989ZM198.349 106.582C198.193 106.582 198.061 106.531 197.953 106.429C197.851 106.327 197.8 106.198 197.8 106.042C197.8 105.879 197.851 105.747 197.953 105.645C198.061 105.543 198.193 105.492 198.349 105.492C198.506 105.492 198.635 105.543 198.737 105.645C198.839 105.747 198.89 105.879 198.89 106.042C198.89 106.198 198.839 106.327 198.737 106.429C198.635 106.531 198.506 106.582 198.349 106.582Z" fill="white"/>
<path d="M194.057 111.797C193.679 111.797 193.331 111.707 193.012 111.527C192.694 111.347 192.442 111.085 192.256 110.743C192.07 110.401 191.977 109.996 191.977 109.527V109.41C191.977 108.942 192.07 108.539 192.256 108.203C192.442 107.861 192.691 107.6 193.003 107.42C193.322 107.233 193.673 107.14 194.057 107.14C194.363 107.14 194.622 107.182 194.832 107.266C195.048 107.345 195.222 107.447 195.354 107.573C195.486 107.693 195.588 107.822 195.66 107.96H195.787V105.366H196.498V111.671H195.805V110.941H195.678C195.558 111.163 195.372 111.362 195.12 111.536C194.868 111.71 194.514 111.797 194.057 111.797ZM194.246 111.166C194.703 111.166 195.072 111.022 195.354 110.734C195.642 110.44 195.787 110.032 195.787 109.509V109.428C195.787 108.906 195.642 108.5 195.354 108.212C195.072 107.918 194.703 107.771 194.246 107.771C193.796 107.771 193.424 107.918 193.13 108.212C192.841 108.5 192.697 108.906 192.697 109.428V109.509C192.697 110.032 192.841 110.44 193.13 110.734C193.424 111.022 193.796 111.166 194.246 111.166Z" fill="white"/>
<path d="M186.348 111.797C185.903 111.797 185.51 111.704 185.168 111.518C184.831 111.332 184.567 111.071 184.375 110.734C184.189 110.392 184.096 109.99 184.096 109.527V109.41C184.096 108.954 184.189 108.555 184.375 108.212C184.567 107.87 184.831 107.606 185.168 107.42C185.51 107.234 185.903 107.141 186.348 107.141C186.792 107.141 187.182 107.234 187.518 107.42C187.861 107.606 188.125 107.87 188.311 108.212C188.503 108.555 188.599 108.954 188.599 109.41V109.527C188.599 109.99 188.503 110.392 188.311 110.734C188.125 111.071 187.861 111.332 187.518 111.518C187.182 111.704 186.792 111.797 186.348 111.797ZM186.348 111.158C186.816 111.158 187.188 111.01 187.464 110.716C187.747 110.416 187.888 110.014 187.888 109.509V109.428C187.888 108.924 187.747 108.525 187.464 108.23C187.188 107.93 186.816 107.78 186.348 107.78C185.885 107.78 185.513 107.93 185.231 108.23C184.949 108.525 184.807 108.924 184.807 109.428V109.509C184.807 110.014 184.949 110.416 185.231 110.716C185.513 111.01 185.885 111.158 186.348 111.158Z" fill="white"/>
<path d="M180.956 111.797C180.529 111.797 180.145 111.707 179.803 111.527C179.467 111.341 179.199 111.077 179.001 110.734C178.809 110.392 178.713 109.987 178.713 109.518V109.419C178.713 108.945 178.809 108.54 179.001 108.203C179.199 107.861 179.467 107.6 179.803 107.42C180.145 107.234 180.529 107.141 180.956 107.141C181.376 107.141 181.733 107.219 182.028 107.375C182.328 107.531 182.562 107.738 182.73 107.996C182.904 108.254 183.015 108.531 183.063 108.825L182.37 108.969C182.34 108.753 182.268 108.555 182.154 108.375C182.046 108.194 181.892 108.05 181.694 107.942C181.496 107.834 181.253 107.78 180.965 107.78C180.671 107.78 180.406 107.846 180.172 107.978C179.944 108.11 179.761 108.299 179.623 108.546C179.491 108.792 179.425 109.086 179.425 109.428V109.509C179.425 109.852 179.491 110.146 179.623 110.392C179.761 110.638 179.944 110.827 180.172 110.959C180.406 111.092 180.671 111.158 180.965 111.158C181.403 111.158 181.736 111.044 181.964 110.815C182.199 110.587 182.343 110.305 182.397 109.969L183.099 110.122C183.033 110.41 182.913 110.683 182.739 110.941C182.565 111.2 182.328 111.407 182.028 111.563C181.733 111.719 181.376 111.797 180.956 111.797Z" fill="white"/>
<path d="M176.721 111.671V107.267H177.433V111.671H176.721ZM177.082 106.582C176.926 106.582 176.793 106.531 176.685 106.429C176.583 106.327 176.532 106.198 176.532 106.042C176.532 105.879 176.583 105.747 176.685 105.645C176.793 105.543 176.926 105.492 177.082 105.492C177.238 105.492 177.367 105.543 177.469 105.645C177.571 105.747 177.622 105.879 177.622 106.042C177.622 106.198 177.571 106.327 177.469 106.429C177.367 106.531 177.238 106.582 177.082 106.582Z" fill="white"/>
<path d="M171.198 111.671V107.266H171.892V108.014H172.018C172.114 107.804 172.276 107.615 172.504 107.447C172.738 107.272 173.08 107.185 173.531 107.185C173.861 107.185 174.155 107.254 174.413 107.393C174.678 107.531 174.888 107.735 175.044 108.005C175.2 108.275 175.278 108.608 175.278 109.005V111.671H174.566V109.059C174.566 108.62 174.455 108.302 174.233 108.104C174.017 107.906 173.723 107.807 173.351 107.807C172.924 107.807 172.576 107.945 172.306 108.221C172.042 108.497 171.91 108.909 171.91 109.455V111.671H171.198Z" fill="white"/>
<path d="M167.841 111.797C167.415 111.797 167.031 111.707 166.689 111.527C166.352 111.341 166.085 111.077 165.887 110.734C165.695 110.392 165.599 109.987 165.599 109.518V109.419C165.599 108.945 165.695 108.54 165.887 108.203C166.085 107.861 166.352 107.6 166.689 107.42C167.031 107.234 167.415 107.141 167.841 107.141C168.262 107.141 168.619 107.219 168.913 107.375C169.213 107.531 169.448 107.738 169.616 107.996C169.79 108.254 169.901 108.531 169.949 108.825L169.256 108.969C169.226 108.753 169.153 108.555 169.039 108.375C168.931 108.194 168.778 108.05 168.58 107.942C168.382 107.834 168.139 107.78 167.85 107.78C167.556 107.78 167.292 107.846 167.058 107.978C166.83 108.11 166.647 108.299 166.508 108.546C166.376 108.792 166.31 109.086 166.31 109.428V109.509C166.31 109.852 166.376 110.146 166.508 110.392C166.647 110.638 166.83 110.827 167.058 110.959C167.292 111.092 167.556 111.158 167.85 111.158C168.289 111.158 168.622 111.044 168.85 110.815C169.084 110.587 169.229 110.305 169.283 109.969L169.985 110.122C169.919 110.41 169.799 110.683 169.625 110.941C169.451 111.2 169.213 111.407 168.913 111.563C168.619 111.719 168.262 111.797 167.841 111.797Z" fill="white"/>
<path d="M162.502 111.797C162.058 111.797 161.668 111.704 161.331 111.518C160.995 111.326 160.734 111.059 160.548 110.716C160.362 110.374 160.269 109.978 160.269 109.527V109.419C160.269 108.963 160.362 108.564 160.548 108.221C160.734 107.879 160.992 107.615 161.322 107.429C161.653 107.237 162.031 107.141 162.457 107.141C162.872 107.141 163.238 107.231 163.556 107.411C163.874 107.585 164.123 107.837 164.304 108.167C164.484 108.498 164.574 108.885 164.574 109.329V109.653H160.98C160.998 110.128 161.151 110.5 161.439 110.77C161.728 111.035 162.088 111.167 162.52 111.167C162.899 111.167 163.19 111.08 163.394 110.905C163.598 110.731 163.754 110.524 163.862 110.284L164.475 110.581C164.385 110.767 164.259 110.953 164.096 111.14C163.94 111.326 163.733 111.482 163.475 111.608C163.223 111.734 162.899 111.797 162.502 111.797ZM160.989 109.068H163.853C163.829 108.66 163.688 108.342 163.43 108.113C163.178 107.885 162.854 107.771 162.457 107.771C162.055 107.771 161.725 107.885 161.467 108.113C161.208 108.342 161.049 108.66 160.989 109.068Z" fill="white"/>
<path d="M158.122 111.671C157.869 111.671 157.674 111.602 157.536 111.464C157.404 111.326 157.338 111.136 157.338 110.896V107.888H156.014V107.267H157.338V105.699H158.05V107.267H159.491V107.888H158.05V110.788C158.05 110.968 158.137 111.058 158.311 111.058H159.292V111.671H158.122Z" fill="white"/>
<path d="M154.293 111.671V107.267H155.004V111.671H154.293ZM154.653 106.582C154.497 106.582 154.365 106.531 154.257 106.429C154.155 106.327 154.104 106.198 154.104 106.042C154.104 105.879 154.155 105.747 154.257 105.645C154.365 105.543 154.497 105.492 154.653 105.492C154.809 105.492 154.938 105.543 155.04 105.645C155.142 105.747 155.193 105.879 155.193 106.042C155.193 106.198 155.142 106.327 155.04 106.429C154.938 106.531 154.809 106.582 154.653 106.582Z" fill="white"/>
<path d="M152.085 111.671V105.366H152.797V111.671H152.085Z" fill="white"/>
<path d="M148.553 111.797C148.109 111.797 147.715 111.704 147.373 111.518C147.037 111.332 146.773 111.071 146.58 110.734C146.394 110.392 146.301 109.99 146.301 109.527V109.41C146.301 108.954 146.394 108.555 146.58 108.212C146.773 107.87 147.037 107.606 147.373 107.42C147.715 107.234 148.109 107.141 148.553 107.141C148.997 107.141 149.388 107.234 149.724 107.42C150.066 107.606 150.33 107.87 150.516 108.212C150.709 108.555 150.805 108.954 150.805 109.41V109.527C150.805 109.99 150.709 110.392 150.516 110.734C150.33 111.071 150.066 111.332 149.724 111.518C149.388 111.704 148.997 111.797 148.553 111.797ZM148.553 111.158C149.021 111.158 149.394 111.01 149.67 110.716C149.952 110.416 150.093 110.014 150.093 109.509V109.428C150.093 108.924 149.952 108.525 149.67 108.23C149.394 107.93 149.021 107.78 148.553 107.78C148.091 107.78 147.718 107.93 147.436 108.23C147.154 108.525 147.013 108.924 147.013 109.428V109.509C147.013 110.014 147.154 110.416 147.436 110.716C147.718 111.01 148.091 111.158 148.553 111.158Z" fill="white"/>
<path d="M141.222 111.671V105.366H143.636C144.014 105.366 144.35 105.441 144.644 105.591C144.945 105.735 145.182 105.943 145.356 106.213C145.53 106.483 145.617 106.81 145.617 107.194V107.312C145.617 107.69 145.527 108.017 145.347 108.293C145.173 108.563 144.936 108.771 144.635 108.915C144.335 109.059 144.002 109.131 143.636 109.131H141.978V111.671H141.222ZM141.978 108.446H143.555C143.957 108.446 144.275 108.347 144.509 108.149C144.743 107.945 144.86 107.66 144.86 107.294V107.203C144.86 106.837 144.743 106.555 144.509 106.357C144.281 106.153 143.963 106.051 143.555 106.051H141.978V108.446Z" fill="white"/>
<path d="M227.634 100.389C227.189 100.389 226.799 100.296 226.463 100.109C226.127 99.9173 225.865 99.6501 225.679 99.3078C225.493 98.9656 225.4 98.5693 225.4 98.1189V98.0109C225.4 97.5545 225.493 97.1552 225.679 96.813C225.865 96.4707 226.124 96.2065 226.454 96.0204C226.784 95.8282 227.162 95.7322 227.589 95.7322C228.003 95.7322 228.369 95.8222 228.687 96.0024C229.006 96.1765 229.255 96.4287 229.435 96.7589C229.615 97.0892 229.705 97.4765 229.705 97.9208V98.245H226.111C226.13 98.7194 226.283 99.0917 226.571 99.3619C226.859 99.6261 227.219 99.7582 227.652 99.7582C228.03 99.7582 228.321 99.6711 228.525 99.497C228.729 99.3228 228.886 99.1157 228.994 98.8755L229.606 99.1727C229.516 99.3589 229.39 99.545 229.228 99.7311C229.072 99.9173 228.865 100.073 228.606 100.199C228.354 100.326 228.03 100.389 227.634 100.389ZM226.121 97.6596H228.985C228.961 97.2513 228.819 96.9331 228.561 96.7049C228.309 96.4767 227.985 96.3626 227.589 96.3626C227.186 96.3626 226.856 96.4767 226.598 96.7049C226.34 96.9331 226.181 97.2513 226.121 97.6596Z" fill="white"/>
<path d="M219.82 102.064V95.8583H220.513V96.5878H220.64C220.754 96.3656 220.937 96.1675 221.189 95.9934C221.447 95.8192 221.804 95.7322 222.261 95.7322C222.639 95.7322 222.984 95.8252 223.297 96.0114C223.615 96.1915 223.867 96.4497 224.053 96.786C224.245 97.1222 224.341 97.5275 224.341 98.0019V98.1189C224.341 98.5873 224.248 98.9926 224.062 99.3348C223.876 99.6771 223.624 99.9383 223.306 100.118C222.993 100.299 222.645 100.389 222.261 100.389C221.955 100.389 221.693 100.347 221.477 100.263C221.267 100.184 221.096 100.082 220.964 99.9563C220.832 99.8302 220.73 99.7011 220.658 99.569H220.531V102.064H219.82ZM222.072 99.7582C222.528 99.7582 222.897 99.6141 223.179 99.3258C223.468 99.0316 223.612 98.6233 223.612 98.1009V98.0199C223.612 97.4975 223.468 97.0922 223.179 96.804C222.897 96.5098 222.528 96.3626 222.072 96.3626C221.621 96.3626 221.249 96.5098 220.955 96.804C220.667 97.0922 220.522 97.4975 220.522 98.0199V98.1009C220.522 98.6233 220.667 99.0316 220.955 99.3258C221.249 99.6141 221.621 99.7582 222.072 99.7582Z" fill="white"/>
<path d="M214.836 102.064V101.433H217.358C217.532 101.433 217.62 101.343 217.62 101.163V99.5597H217.493C217.433 99.6857 217.34 99.8118 217.214 99.9379C217.094 100.058 216.935 100.157 216.737 100.235C216.539 100.307 216.29 100.343 215.989 100.343C215.671 100.343 215.377 100.274 215.107 100.136C214.842 99.998 214.632 99.7938 214.476 99.5236C214.326 99.2534 214.251 98.9232 214.251 98.5329V95.8579H214.963V98.4789C214.963 98.9112 215.071 99.2264 215.287 99.4246C215.509 99.6227 215.806 99.7218 216.178 99.7218C216.599 99.7218 216.944 99.5837 217.214 99.3075C217.484 99.0313 217.62 98.62 217.62 98.0736V95.8579H218.331V101.289C218.331 101.529 218.262 101.718 218.124 101.856C217.992 101.994 217.797 102.064 217.538 102.064H214.836Z" fill="white"/>
<path d="M211.784 100.263C211.531 100.263 211.336 100.194 211.198 100.055C211.066 99.9173 211 99.7282 211 99.488V96.4798H209.676V95.8583H211V94.2911H211.712V95.8583H213.153V96.4798H211.712V99.3799C211.712 99.56 211.799 99.6501 211.973 99.6501H212.954V100.263H211.784Z" fill="white"/>
<path d="M206.815 100.389C206.371 100.389 205.977 100.296 205.635 100.109C205.299 99.9233 205.035 99.6621 204.842 99.3258C204.656 98.9836 204.563 98.5813 204.563 98.1189V98.0019C204.563 97.5455 204.656 97.1462 204.842 96.804C205.035 96.4617 205.299 96.1975 205.635 96.0114C205.977 95.8252 206.371 95.7322 206.815 95.7322C207.259 95.7322 207.649 95.8252 207.986 96.0114C208.328 96.1975 208.592 96.4617 208.778 96.804C208.97 97.1462 209.067 97.5455 209.067 98.0019V98.1189C209.067 98.5813 208.97 98.9836 208.778 99.3258C208.592 99.6621 208.328 99.9233 207.986 100.109C207.649 100.296 207.259 100.389 206.815 100.389ZM206.815 99.7492C207.283 99.7492 207.655 99.602 207.932 99.3078C208.214 99.0076 208.355 98.6053 208.355 98.1009V98.0199C208.355 97.5155 208.214 97.1162 207.932 96.822C207.655 96.5218 207.283 96.3717 206.815 96.3717C206.352 96.3717 205.98 96.5218 205.698 96.822C205.416 97.1162 205.275 97.5155 205.275 98.0199V98.1009C205.275 98.6053 205.416 99.0076 205.698 99.3078C205.98 99.602 206.352 99.7492 206.815 99.7492Z" fill="white"/>
<path d="M202.416 100.263C202.164 100.263 201.969 100.194 201.831 100.055C201.699 99.9173 201.633 99.7282 201.633 99.488V96.4798H200.309V95.8583H201.633V94.2911H202.344V95.8583H203.785V96.4798H202.344V99.3799C202.344 99.56 202.431 99.6501 202.605 99.6501H203.587V100.263H202.416Z" fill="white"/>
<path d="M197.448 100.389C197.003 100.389 196.61 100.296 196.268 100.109C195.932 99.9233 195.667 99.6621 195.475 99.3258C195.289 98.9836 195.196 98.5813 195.196 98.1189V98.0019C195.196 97.5455 195.289 97.1462 195.475 96.804C195.667 96.4617 195.932 96.1975 196.268 96.0114C196.61 95.8252 197.003 95.7322 197.448 95.7322C197.892 95.7322 198.282 95.8252 198.619 96.0114C198.961 96.1975 199.225 96.4617 199.411 96.804C199.603 97.1462 199.699 97.5455 199.699 98.0019V98.1189C199.699 98.5813 199.603 98.9836 199.411 99.3258C199.225 99.6621 198.961 99.9233 198.619 100.109C198.282 100.296 197.892 100.389 197.448 100.389ZM197.448 99.7492C197.916 99.7492 198.288 99.602 198.564 99.3078C198.847 99.0076 198.988 98.6053 198.988 98.1009V98.0199C198.988 97.5155 198.847 97.1162 198.564 96.822C198.288 96.5218 197.916 96.3717 197.448 96.3717C196.985 96.3717 196.613 96.5218 196.331 96.822C196.049 97.1162 195.908 97.5155 195.908 98.0199V98.1009C195.908 98.6053 196.049 99.0076 196.331 99.3078C196.613 99.602 196.985 99.7492 197.448 99.7492Z" fill="white"/>
<path d="M192.175 100.262V95.8579H192.869V96.3983H192.995C193.073 96.2061 193.193 96.065 193.355 95.9749C193.517 95.8849 193.731 95.8398 193.995 95.8398H194.517V96.4883H193.95C193.631 96.4883 193.373 96.5784 193.175 96.7585C192.983 96.9327 192.887 97.2059 192.887 97.5781V100.262H192.175Z" fill="white"/>
<path d="M186.379 102.064V95.8583H187.073V96.5878H187.199C187.313 96.3656 187.496 96.1675 187.748 95.9934C188.006 95.8192 188.363 95.7322 188.82 95.7322C189.198 95.7322 189.543 95.8252 189.856 96.0114C190.174 96.1915 190.426 96.4497 190.612 96.786C190.804 97.1222 190.9 97.5275 190.9 98.0019V98.1189C190.9 98.5873 190.807 98.9926 190.621 99.3348C190.435 99.6771 190.183 99.9383 189.865 100.118C189.552 100.299 189.204 100.389 188.82 100.389C188.514 100.389 188.252 100.347 188.036 100.263C187.826 100.184 187.655 100.082 187.523 99.9563C187.391 99.8302 187.289 99.7011 187.217 99.569H187.091V102.064H186.379ZM188.631 99.7582C189.087 99.7582 189.456 99.6141 189.739 99.3258C190.027 99.0316 190.171 98.6233 190.171 98.1009V98.0199C190.171 97.4975 190.027 97.0922 189.739 96.804C189.456 96.5098 189.087 96.3626 188.631 96.3626C188.18 96.3626 187.808 96.5098 187.514 96.804C187.226 97.0922 187.082 97.4975 187.082 98.0199V98.1009C187.082 98.6233 187.226 99.0316 187.514 99.3258C187.808 99.6141 188.18 99.7582 188.631 99.7582Z" fill="white"/>
<path d="M178.542 100.262V93.9575H179.254V96.5605H179.38C179.44 96.4284 179.53 96.3053 179.65 96.1912C179.776 96.0711 179.935 95.972 180.127 95.894C180.325 95.8159 180.575 95.7769 180.875 95.7769C181.205 95.7769 181.499 95.8489 181.758 95.993C182.022 96.1311 182.232 96.3353 182.388 96.6055C182.544 96.8697 182.622 97.1999 182.622 97.5962V100.262H181.911V97.6503C181.911 97.2119 181.8 96.8937 181.577 96.6956C181.361 96.4974 181.067 96.3983 180.695 96.3983C180.268 96.3983 179.92 96.5364 179.65 96.8126C179.386 97.0888 179.254 97.5001 179.254 98.0466V100.262H178.542Z" fill="white"/>
<path d="M175.186 100.389C174.76 100.389 174.375 100.299 174.033 100.118C173.697 99.9323 173.43 99.6681 173.231 99.3258C173.039 98.9836 172.943 98.5783 172.943 98.1099V98.0109C172.943 97.5365 173.039 97.1312 173.231 96.795C173.43 96.4527 173.697 96.1915 174.033 96.0114C174.375 95.8252 174.76 95.7322 175.186 95.7322C175.606 95.7322 175.963 95.8102 176.258 95.9664C176.558 96.1225 176.792 96.3296 176.96 96.5878C177.134 96.846 177.245 97.1222 177.293 97.4164L176.6 97.5605C176.57 97.3444 176.498 97.1462 176.384 96.9661C176.276 96.786 176.123 96.6419 175.924 96.5338C175.726 96.4257 175.483 96.3717 175.195 96.3717C174.901 96.3717 174.636 96.4377 174.402 96.5698C174.174 96.7019 173.991 96.891 173.853 97.1372C173.721 97.3834 173.655 97.6776 173.655 98.0199V98.1009C173.655 98.4432 173.721 98.7374 173.853 98.9836C173.991 99.2298 174.174 99.4189 174.402 99.551C174.636 99.6831 174.901 99.7492 175.195 99.7492C175.633 99.7492 175.966 99.6351 176.195 99.4069C176.429 99.1787 176.573 98.8965 176.627 98.5603L177.329 98.7134C177.263 99.0016 177.143 99.2748 176.969 99.533C176.795 99.7912 176.558 99.9983 176.258 100.154C175.963 100.311 175.606 100.389 175.186 100.389Z" fill="white"/>
<path d="M169.923 100.262V95.8579H170.616V96.3983H170.742C170.82 96.2061 170.94 96.065 171.102 95.9749C171.265 95.8849 171.478 95.8398 171.742 95.8398H172.264V96.4883H171.697C171.379 96.4883 171.12 96.5784 170.922 96.7585C170.73 96.9327 170.634 97.2059 170.634 97.5781V100.262H169.923Z" fill="white"/>
<path d="M166.093 100.389C165.787 100.389 165.507 100.335 165.255 100.227C165.003 100.118 164.805 99.9623 164.661 99.7582C164.517 99.554 164.445 99.3048 164.445 99.0106C164.445 98.7104 164.517 98.4642 164.661 98.2721C164.805 98.0739 165.003 97.9268 165.255 97.8307C165.507 97.7287 165.79 97.6776 166.102 97.6776H167.588V97.3534C167.588 97.0411 167.495 96.795 167.309 96.6148C167.129 96.4347 166.858 96.3446 166.498 96.3446C166.144 96.3446 165.868 96.4317 165.669 96.6058C165.471 96.774 165.336 97.0021 165.264 97.2903L164.598 97.0742C164.67 96.828 164.784 96.6058 164.94 96.4077C165.096 96.2035 165.303 96.0414 165.561 95.9213C165.826 95.7952 166.141 95.7322 166.507 95.7322C167.072 95.7322 167.51 95.8793 167.822 96.1735C168.134 96.4617 168.29 96.87 168.29 97.3984V99.3889C168.29 99.569 168.374 99.6591 168.543 99.6591H168.948V100.263H168.326C168.128 100.263 167.969 100.208 167.849 100.1C167.729 99.9863 167.669 99.8362 167.669 99.6501V99.605H167.561C167.495 99.7191 167.405 99.8392 167.291 99.9653C167.183 100.085 167.032 100.184 166.84 100.263C166.648 100.347 166.399 100.389 166.093 100.389ZM166.174 99.7762C166.594 99.7762 166.933 99.6531 167.192 99.4069C167.456 99.1547 167.588 98.8035 167.588 98.3531V98.254H166.129C165.847 98.254 165.612 98.3171 165.426 98.4432C165.246 98.5633 165.156 98.7464 165.156 98.9926C165.156 99.2388 165.249 99.4309 165.435 99.569C165.627 99.7071 165.874 99.7762 166.174 99.7762Z" fill="white"/>
<path d="M161.429 100.389C160.985 100.389 160.595 100.296 160.258 100.109C159.922 99.9173 159.661 99.6501 159.475 99.3078C159.289 98.9656 159.196 98.5693 159.196 98.1189V98.0109C159.196 97.5545 159.289 97.1552 159.475 96.813C159.661 96.4707 159.919 96.2065 160.249 96.0204C160.58 95.8282 160.958 95.7322 161.384 95.7322C161.799 95.7322 162.165 95.8222 162.483 96.0024C162.801 96.1765 163.05 96.4287 163.231 96.7589C163.411 97.0892 163.501 97.4765 163.501 97.9208V98.245H159.907C159.925 98.7194 160.078 99.0917 160.366 99.3619C160.655 99.6261 161.015 99.7582 161.447 99.7582C161.826 99.7582 162.117 99.6711 162.321 99.497C162.525 99.3228 162.681 99.1157 162.789 98.8755L163.402 99.1727C163.312 99.3589 163.186 99.545 163.023 99.7311C162.867 99.9173 162.66 100.073 162.402 100.199C162.15 100.326 161.826 100.389 161.429 100.389ZM159.916 97.6596H162.78C162.756 97.2513 162.615 96.9331 162.357 96.7049C162.105 96.4767 161.781 96.3626 161.384 96.3626C160.982 96.3626 160.652 96.4767 160.394 96.7049C160.135 96.9331 159.976 97.2513 159.916 97.6596Z" fill="white"/>
<path d="M156.436 100.389C155.89 100.389 155.428 100.263 155.049 100.01C154.677 99.7582 154.452 99.3589 154.374 98.8125L155.049 98.6593C155.097 98.9476 155.188 99.1757 155.32 99.3439C155.452 99.506 155.614 99.6231 155.806 99.6951C156.004 99.7612 156.214 99.7942 156.436 99.7942C156.767 99.7942 157.028 99.7281 157.22 99.596C157.412 99.4639 157.508 99.2868 157.508 99.0646C157.508 98.8365 157.415 98.6774 157.229 98.5873C157.049 98.4912 156.8 98.4132 156.482 98.3531L156.112 98.2901C155.83 98.242 155.572 98.167 155.338 98.0649C155.104 97.9628 154.917 97.8247 154.779 97.6506C154.641 97.4765 154.572 97.2573 154.572 96.9931C154.572 96.5968 154.725 96.2876 155.031 96.0654C155.338 95.8433 155.743 95.7322 156.247 95.7322C156.746 95.7322 157.148 95.8463 157.454 96.0744C157.766 96.2966 157.968 96.6118 158.058 97.0201L157.391 97.1913C157.337 96.873 157.208 96.6509 157.004 96.5248C156.8 96.3927 156.548 96.3266 156.247 96.3266C155.947 96.3266 155.71 96.3837 155.536 96.4977C155.362 96.6058 155.275 96.7679 155.275 96.9841C155.275 97.1943 155.356 97.3504 155.518 97.4525C155.686 97.5485 155.908 97.6206 156.184 97.6686L156.554 97.7317C156.866 97.7857 157.145 97.8608 157.391 97.9568C157.643 98.0469 157.842 98.179 157.986 98.3531C158.136 98.5273 158.211 98.7554 158.211 99.0376C158.211 99.4699 158.049 99.8032 157.724 100.037C157.406 100.272 156.977 100.389 156.436 100.389Z" fill="white"/>
<path d="M151.35 100.389C150.905 100.389 150.515 100.296 150.179 100.109C149.842 99.9173 149.581 99.6501 149.395 99.3078C149.209 98.9656 149.116 98.5693 149.116 98.1189V98.0109C149.116 97.5545 149.209 97.1552 149.395 96.813C149.581 96.4707 149.839 96.2065 150.17 96.0204C150.5 95.8282 150.878 95.7322 151.305 95.7322C151.719 95.7322 152.085 95.8222 152.403 96.0024C152.722 96.1765 152.971 96.4287 153.151 96.7589C153.331 97.0892 153.421 97.4765 153.421 97.9208V98.245H149.827C149.845 98.7194 149.999 99.0917 150.287 99.3619C150.575 99.6261 150.935 99.7582 151.368 99.7582C151.746 99.7582 152.037 99.6711 152.241 99.497C152.445 99.3228 152.601 99.1157 152.71 98.8755L153.322 99.1727C153.232 99.3589 153.106 99.545 152.944 99.7311C152.788 99.9173 152.58 100.073 152.322 100.199C152.07 100.326 151.746 100.389 151.35 100.389ZM149.836 97.6596H152.701C152.677 97.2513 152.535 96.9331 152.277 96.7049C152.025 96.4767 151.701 96.3626 151.305 96.3626C150.902 96.3626 150.572 96.4767 150.314 96.7049C150.056 96.9331 149.896 97.2513 149.836 97.6596Z" fill="white"/>
<path d="M143.623 100.262V93.9575H146.172C146.562 93.9575 146.904 94.0266 147.199 94.1647C147.499 94.2968 147.733 94.4889 147.901 94.7411C148.069 94.9873 148.153 95.2845 148.153 95.6328V95.7318C148.153 96.1461 148.054 96.4734 147.856 96.7136C147.658 96.9537 147.424 97.1159 147.154 97.1999V97.326C147.37 97.332 147.547 97.4041 147.685 97.5422C147.829 97.6743 147.901 97.8754 147.901 98.1456V100.262H147.154V98.2357C147.154 98.0556 147.103 97.9175 147.001 97.8214C146.904 97.7253 146.757 97.6773 146.559 97.6773H144.38V100.262H143.623ZM144.38 96.9928H146.1C146.514 96.9928 146.832 96.8937 147.055 96.6956C147.283 96.4914 147.397 96.2092 147.397 95.8489V95.7859C147.397 95.4256 147.286 95.1464 147.064 94.9483C146.841 94.7441 146.52 94.642 146.1 94.642H144.38V96.9928Z" fill="white"/>
<mask id="mask0_533_17030" style="mask-type:luminance" maskUnits="userSpaceOnUse" x="1" y="40" width="97" height="96">
<path d="M91.4286 40.0144H8.10045C4.63503 40.0144 1.82574 42.8196 1.82574 46.2801V129.488C1.82574 132.949 4.63503 135.754 8.10045 135.754H91.4286C94.894 135.754 97.7033 132.949 97.7033 129.488V46.2801C97.7033 42.8196 94.894 40.0144 91.4286 40.0144Z" fill="white"/>
</mask>
<g mask="url(#mask0_533_17030)">
<path d="M91.4288 40.0148H8.10064C4.63521 40.0148 1.82593 42.82 1.82593 46.2805V129.489C1.82593 132.949 4.63521 135.754 8.10064 135.754H91.4288C94.8942 135.754 97.7035 132.949 97.7035 129.489V46.2805C97.7035 42.82 94.8942 40.0148 91.4288 40.0148Z" fill="#171717"/>
<path d="M98.0039 39.7147V136.055H1.5257V39.7147H98.0039ZM2.12614 135.455H97.4034V40.3152H2.12614V135.455Z" fill="#F6F6F6"/>
<path d="M78.6907 68.0533C83.6636 68.0533 87.6949 64.0278 87.6949 59.0621C87.6949 54.0963 83.6636 50.0708 78.6907 50.0708C73.7178 50.0708 69.6865 54.0963 69.6865 59.0621C69.6865 64.0278 73.7178 68.0533 78.6907 68.0533Z" fill="#F6F6F6"/>
<path d="M69.8327 107.76C69.8326 85.7172 51.9377 67.846 29.8603 67.8459C7.78278 67.8459 -10.1126 85.7171 -10.1127 107.76C-10.1127 129.802 7.7827 147.674 29.8603 147.674C51.9378 147.674 69.8327 129.802 69.8327 107.76ZM71.634 107.76C71.634 130.8 52.9302 149.475 29.8603 149.475C6.79029 149.475 -11.9141 130.8 -11.9141 107.76C-11.9139 84.7198 6.79037 66.0446 29.8603 66.0446C52.9301 66.0447 71.6339 84.7199 71.634 107.76Z" fill="#F6F6F6"/>
<path d="M109.639 68.0108C109.639 45.9683 91.7443 28.0971 69.6669 28.097C47.5894 28.097 29.694 45.9682 29.6939 68.0108C29.6939 90.0535 47.5893 107.925 69.6669 107.925C91.7443 107.925 109.639 90.0534 109.639 68.0108ZM111.441 68.0108C111.441 91.0507 92.7367 109.726 69.6669 109.726C46.5969 109.726 27.8925 91.0507 27.8925 68.0108C27.8927 44.9709 46.597 26.2957 69.6669 26.2957C92.7367 26.2958 111.44 44.971 111.441 68.0108Z" fill="#F6F6F6"/>
<path d="M89.7366 87.8854C89.7364 65.8429 71.8415 47.9717 49.7641 47.9716C27.6867 47.9716 9.79128 65.8428 9.79114 87.8854C9.79114 109.928 27.6866 127.8 49.7641 127.8C71.8416 127.8 89.7366 109.928 89.7366 87.8854ZM91.5379 87.8854C91.5379 110.925 72.834 129.601 49.7641 129.601C26.6942 129.601 7.98981 110.925 7.98981 87.8854C7.98994 64.8455 26.6942 46.1703 49.7641 46.1703C72.834 46.1704 91.5378 64.8456 91.5379 87.8854Z" fill="#F6F6F6"/>
<path d="M104.339 34.6687L-3.53641 142.382L-4.80884 141.108L103.066 33.3939L104.339 34.6687Z" fill="#F6F6F6"/>
</g>
<path d="M87.2927 134.488V137.49H12.2371V134.488H87.2927ZM96.2994 125.481V50.4252C96.2994 45.4509 92.267 41.4185 87.2927 41.4185H12.2371C7.2628 41.4185 3.23038 45.4509 3.23038 50.4252V125.481C3.23038 130.455 7.2628 134.488 12.2371 134.488V137.49C5.70843 137.49 0.396781 132.28 0.232254 125.791L0.228149 125.481V50.4252C0.22815 43.7928 5.60472 38.4163 12.2371 38.4163H87.2927L87.6029 38.4204C94.0919 38.5849 99.3016 43.8965 99.3016 50.4252V125.481L99.2975 125.791C99.1356 132.177 93.9888 137.324 87.6029 137.486L87.2927 137.49V134.488C92.267 134.488 96.2994 130.455 96.2994 125.481Z" fill="white"/>
<path d="M230.199 134.488V137.49H108.308V134.488H230.199Z" fill="white"/>
<path d="M175 83L175 75L202 75L202 83L175 83Z" fill="#D0FF00"/>
<path d="M109 83L109 75L187 75L187 83L109 83Z" fill="white"/>
<path d="M217 83L217 75L230 75L230 83L217 83Z" fill="#E3E3E3"/>
<path d="M202 83L202 75L217 75L217 83L202 83Z" fill="#5E00FF"/>
</svg>
