<svg width="1247.5" height="214" viewBox="0 0 1247.5 214" fill="none" xmlns="http://www.w3.org/2000/svg">
<path d="M1069.53 148L1015.7 148L1015.7 147.997C987.851 147.939 965.374 143.71 965.374 138.5C965.374 133.29 987.851 129.06 1015.7 129.002L1015.7 129L1069.53 129L1069.53 148Z" fill="#E3E3E3"/>
<path d="M1069.54 148L1041.07 148L1041.07 147.997C1026.35 147.939 1014.47 143.71 1014.47 138.5C1014.47 133.29 1026.35 129.06 1041.07 129.002L1041.07 129L1069.54 129L1069.54 148Z" fill="#D0FF00"/>
<path d="M166.525 121L169.765 110.5H171.985L175.225 121H173.92L173.11 118.345H168.64L167.83 121H166.525ZM168.955 117.205H172.78L170.98 111.265H170.77L168.955 117.205Z" fill="#171717"/>
<path d="M1065.62 121V119.875H1067.09V111.625H1065.62V110.5H1070.89C1071.5 110.5 1072.04 110.61 1072.51 110.83C1072.99 111.05 1073.36 111.36 1073.62 111.76C1073.89 112.15 1074.02 112.61 1074.02 113.14V113.26C1074.02 113.75 1073.93 114.155 1073.74 114.475C1073.55 114.785 1073.32 115.03 1073.06 115.21C1072.8 115.38 1072.55 115.505 1072.3 115.585V115.795C1072.55 115.855 1072.81 115.975 1073.08 116.155C1073.35 116.325 1073.57 116.57 1073.75 116.89C1073.94 117.21 1074.04 117.615 1074.04 118.105V118.255C1074.04 118.825 1073.9 119.32 1073.62 119.74C1073.35 120.15 1072.97 120.465 1072.49 120.685C1072.02 120.895 1071.48 121 1070.87 121H1065.62ZM1068.35 119.86H1070.74C1071.4 119.86 1071.9 119.705 1072.25 119.395C1072.6 119.085 1072.78 118.665 1072.78 118.135V118C1072.78 117.47 1072.6 117.05 1072.25 116.74C1071.9 116.43 1071.4 116.275 1070.74 116.275H1068.35V119.86ZM1068.35 115.135H1070.78C1071.38 115.135 1071.86 114.985 1072.22 114.685C1072.58 114.375 1072.76 113.97 1072.76 113.47V113.32C1072.76 112.81 1072.58 112.405 1072.22 112.105C1071.87 111.795 1071.39 111.64 1070.78 111.64H1068.35V115.135Z" fill="#171717"/>
<path d="M1188.51 60.7041L1197.93 57.2444L1198.49 57.922L1189.07 61.3818L1188.51 60.7041ZM1192.72 65.7834L1202.14 62.3236L1202.7 63.0013L1193.28 66.4611L1192.72 65.7834ZM1203.11 76.4321L1208.41 72.0393L1206.89 70.2011L1207.6 69.6116L1211.25 74.0165L1210.54 74.606L1209.02 72.7678L1203.71 77.1606L1203.11 76.4321ZM1207.52 81.9598C1207.18 81.5476 1206.97 81.1066 1206.91 80.637C1206.85 80.173 1206.92 79.7112 1207.13 79.2518C1207.35 78.7876 1207.69 78.359 1208.17 77.9661C1208.65 77.5684 1209.13 77.3093 1209.62 77.1887C1210.11 77.068 1210.58 77.0807 1211.03 77.2265C1211.47 77.3781 1211.87 77.66 1212.21 78.0722C1212.55 78.4845 1212.75 78.9226 1212.81 79.3866C1212.88 79.8563 1212.81 80.3209 1212.6 80.7803C1212.39 81.2398 1212.04 81.6684 1211.56 82.066C1211.09 82.459 1210.6 82.7181 1210.11 82.8434C1209.62 82.9641 1209.15 82.9486 1208.7 82.7971C1208.25 82.6512 1207.86 82.3721 1207.52 81.9598ZM1208.2 81.3985C1208.54 81.8107 1208.95 82.0082 1209.43 81.9908C1209.92 81.9744 1210.43 81.751 1210.95 81.3206C1211.47 80.8902 1211.78 80.4376 1211.88 79.9628C1211.99 79.4889 1211.88 79.0459 1211.53 78.6336C1211.19 78.2214 1210.78 78.0234 1210.28 78.0399C1209.8 78.0572 1209.3 78.2811 1208.78 78.7115C1208.26 79.1419 1207.95 79.594 1207.84 80.0679C1207.73 80.5427 1207.85 80.9862 1208.2 81.3985ZM1211.47 86.7257C1211.1 86.2795 1210.95 85.7998 1211.03 85.2864C1211.12 84.7684 1211.42 84.2895 1211.96 83.8497L1214.84 81.4568L1215.43 82.1684L1212.74 84.3999C1212.3 84.7601 1212.05 85.103 1211.96 85.4286C1211.89 85.7551 1211.99 86.0793 1212.25 86.4012C1212.54 86.7514 1212.89 86.9345 1213.28 86.9507C1213.68 86.9622 1214.08 86.8018 1214.48 86.4697L1217.16 84.2522L1217.75 84.9638L1213.26 88.683L1212.7 88.0053L1213.81 87.086L1213.84 87.2453C1213.4 87.459 1212.97 87.523 1212.56 87.4373C1212.15 87.3469 1211.78 87.1097 1211.47 86.7257ZM1216.03 92.2369C1215.69 91.819 1215.48 91.3753 1215.41 90.9056C1215.35 90.4359 1215.42 89.9714 1215.63 89.5119C1215.85 89.0478 1216.19 88.6192 1216.67 88.2262C1217.14 87.8333 1217.62 87.5765 1218.11 87.4558C1218.6 87.3352 1219.07 87.3506 1219.52 87.5022C1219.98 87.6491 1220.38 87.9314 1220.73 88.3493C1221 88.6825 1221.18 89.0305 1221.28 89.3932C1221.37 89.7512 1221.37 90.1108 1221.28 90.472C1221.19 90.8333 1221.01 91.1829 1220.72 91.5211L1220.06 90.8177C1220.3 90.502 1220.42 90.177 1220.41 89.8427C1220.41 89.5094 1220.29 89.1987 1220.05 88.9107C1219.71 88.4985 1219.29 88.2977 1218.79 88.3085C1218.31 88.3202 1217.8 88.5413 1217.28 88.9717C1216.76 89.4021 1216.45 89.857 1216.34 90.3365C1216.25 90.817 1216.37 91.2633 1216.71 91.6756C1216.95 91.9636 1217.24 92.1419 1217.58 92.2105C1217.93 92.2847 1218.3 92.2154 1218.69 92.0025L1219.26 92.79C1218.88 93.0039 1218.49 93.1262 1218.09 93.157C1217.71 93.1831 1217.33 93.1196 1216.98 92.9664C1216.62 92.8133 1216.31 92.5701 1216.03 92.2369ZM1218.84 95.4192L1224.85 90.4369L1225.44 91.1484L1222.93 93.2326L1222.87 93.1339C1223.17 92.9845 1223.45 92.9121 1223.72 92.9166C1223.99 92.9212 1224.25 92.9919 1224.48 93.1287C1224.73 93.2609 1224.94 93.4427 1225.14 93.6742C1225.4 93.9961 1225.55 94.328 1225.59 94.6699C1225.64 95.0127 1225.58 95.3482 1225.41 95.6764C1225.25 96.0055 1225.01 96.3081 1224.68 96.5841L1221.79 98.977L1221.2 98.2654L1223.88 96.0409C1224.32 95.6807 1224.57 95.335 1224.65 95.0038C1224.73 94.6782 1224.65 94.3573 1224.38 94.041C1224.08 93.6796 1223.73 93.48 1223.33 93.4422C1222.93 93.4101 1222.52 93.5671 1222.11 93.9133L1219.43 96.1308L1218.84 95.4192ZM1226.83 105.069L1231.32 101.35L1231.86 102.003L1230.89 102.856L1230.83 102.757C1231.21 102.532 1231.56 102.422 1231.89 102.427C1232.22 102.432 1232.5 102.565 1232.72 102.825C1232.94 103.09 1233.01 103.373 1232.93 103.673C1232.86 103.979 1232.66 104.303 1232.31 104.646L1232.24 104.561C1232.63 104.322 1233 104.206 1233.35 104.212C1233.7 104.225 1233.99 104.366 1234.22 104.637C1234.52 104.999 1234.61 105.364 1234.5 105.734C1234.39 106.104 1234.04 106.527 1233.46 107.004L1230.48 109.474L1229.89 108.763L1232.77 106.377C1233.17 106.045 1233.42 105.771 1233.51 105.555C1233.6 105.335 1233.57 105.134 1233.42 104.953C1233.32 104.835 1233.2 104.763 1233.04 104.738C1232.9 104.709 1232.72 104.734 1232.51 104.813C1232.3 104.898 1232.07 105.045 1231.82 105.256L1228.95 107.628L1228.36 106.916L1231.24 104.53C1231.63 104.212 1231.87 103.941 1231.97 103.715C1232.07 103.496 1232.05 103.293 1231.89 103.107C1231.79 102.988 1231.67 102.916 1231.51 102.892C1231.37 102.862 1231.19 102.887 1230.98 102.966C1230.77 103.051 1230.54 103.199 1230.29 103.409L1227.42 105.781L1226.83 105.069ZM1232.83 112.512C1232.48 112.088 1232.27 111.641 1232.2 111.172C1232.14 110.708 1232.22 110.246 1232.43 109.787C1232.65 109.328 1232.99 108.902 1233.47 108.509C1233.94 108.116 1234.42 107.857 1234.91 107.73C1235.4 107.61 1235.86 107.62 1236.3 107.76C1236.76 107.901 1237.15 108.178 1237.49 108.59C1237.82 108.98 1238.01 109.401 1238.07 109.855C1238.14 110.304 1238.07 110.758 1237.86 111.218C1237.65 111.677 1237.29 112.115 1236.79 112.532L1236.57 112.707L1233.87 109.437C1233.41 109.863 1233.15 110.29 1233.1 110.717C1233.05 111.149 1233.18 111.561 1233.51 111.95C1233.75 112.244 1234.02 112.428 1234.31 112.502C1234.61 112.577 1234.9 112.558 1235.19 112.444L1235.76 113.255C1235.26 113.469 1234.74 113.517 1234.21 113.399C1233.68 113.282 1233.22 112.986 1232.83 112.512ZM1234.49 108.918L1236.56 111.408C1236.96 111.014 1237.18 110.623 1237.2 110.234C1237.22 109.846 1237.09 109.485 1236.81 109.151C1236.53 108.807 1236.19 108.611 1235.78 108.563C1235.39 108.515 1234.96 108.634 1234.49 108.918Z" fill="#171717"/>
<line x1="171.374" y1="138.5" x2="1068.37" y2="138.5" stroke="#171717" stroke-dasharray="2 2"/>
<line x1="170.874" y1="102" x2="170.874" y2="30" stroke="#171717"/>
<line x1="1069.87" y1="104" x2="1069.87" y2="30" stroke="#171717"/>
<line x1="319.874" y1="124" x2="319.874" y2="30" stroke="#171717"/>
<line x1="469.874" y1="124" x2="469.874" y2="30" stroke="#171717"/>
<line x1="619.874" y1="124" x2="619.874" y2="30" stroke="#171717"/>
<line x1="769.874" y1="124" x2="769.874" y2="30" stroke="#171717"/>
<line x1="919.874" y1="124" x2="919.874" y2="30" stroke="#171717"/>
<circle cx="171.374" cy="139" r="10" fill="#171717"/>
<circle cx="320.374" cy="139" r="5" fill="#171717"/>
<circle cx="470.374" cy="139" r="5" fill="#171717"/>
<circle cx="620.374" cy="139" r="5" fill="#171717"/>
<circle cx="770.374" cy="139" r="5" fill="#171717"/>
<circle cx="920.374" cy="139" r="5" fill="#171717"/>
<path d="M1.09473 63L117.374 212" stroke="#FF0000"/>
<path d="M116.653 63L0.374023 212" stroke="#FF0000"/>
<path d="M1247.37 138V139L1185.37 214L1184.6 213.362L1233.12 154.668V139H1134.37V138H1233.12V122.332L1184.6 63.6377L1185.37 63L1247.37 138Z" fill="#171717"/>
<path d="M1069.53 148L1015.7 148L1015.7 147.997C987.851 147.939 965.374 143.71 965.374 138.5C965.374 133.29 987.851 129.06 1015.7 129.002L1015.7 129L1069.53 129L1069.53 148Z" fill="#E3E3E3"/>
<path d="M1069.54 148L1041.07 148L1041.07 147.997C1026.35 147.939 1014.47 143.71 1014.47 138.5C1014.47 133.29 1026.35 129.06 1041.07 129.002L1041.07 129L1069.54 129L1069.54 148Z" fill="#D0FF00"/>
<path d="M156.943 12V10.992H159.067V4.488H156.943V3.48H162.223V4.488H160.099V10.992H162.223V12H156.943ZM164.259 12V3.48H166.275C167.011 3.48 167.651 3.648 168.195 3.984C168.747 4.312 169.171 4.796 169.467 5.436C169.771 6.068 169.923 6.84 169.923 7.752C169.923 8.664 169.771 9.436 169.467 10.068C169.171 10.7 168.747 11.18 168.195 11.508C167.651 11.836 167.011 12 166.275 12H164.259ZM165.291 10.992H166.215C167.047 10.992 167.691 10.724 168.147 10.188C168.611 9.644 168.843 8.832 168.843 7.752C168.843 6.672 168.611 5.86 168.147 5.316C167.691 4.764 167.047 4.488 166.215 4.488H165.291V10.992ZM171.454 12V3.48H176.638V4.488H172.486V7.236H176.494V8.22H172.486V10.992H176.734V12H171.454ZM177.881 12L180.473 3.48H181.865L184.457 12H183.353L181.169 4.416L178.985 12H177.881ZM179.189 9.576L179.549 8.568H182.789L183.149 9.576H179.189Z" fill="#171717"/>
<path d="M297.814 12.192C297.134 12.192 296.558 12.012 296.086 11.652C295.614 11.292 295.254 10.78 295.006 10.116C294.766 9.452 294.646 8.664 294.646 7.752C294.646 6.832 294.766 6.04 295.006 5.376C295.254 4.712 295.614 4.2 296.086 3.84C296.558 3.472 297.134 3.288 297.814 3.288C298.566 3.288 299.206 3.536 299.734 4.032C300.262 4.52 300.614 5.204 300.79 6.084L299.686 6.156C299.55 5.54 299.314 5.076 298.978 4.764C298.65 4.452 298.262 4.296 297.814 4.296C297.358 4.296 296.974 4.432 296.662 4.704C296.358 4.968 296.126 5.36 295.966 5.88C295.806 6.392 295.726 7.016 295.726 7.752C295.726 8.48 295.806 9.1 295.966 9.612C296.126 10.124 296.358 10.516 296.662 10.788C296.974 11.052 297.358 11.184 297.814 11.184C298.31 11.184 298.73 11.012 299.074 10.668C299.418 10.324 299.65 9.812 299.77 9.132L300.862 9.192C300.71 10.128 300.366 10.864 299.83 11.4C299.294 11.928 298.622 12.192 297.814 12.192ZM304.986 12.192C304.314 12.192 303.742 12.02 303.27 11.676C302.806 11.332 302.45 10.828 302.202 10.164C301.962 9.5 301.842 8.696 301.842 7.752C301.842 6.792 301.962 5.98 302.202 5.316C302.45 4.652 302.806 4.148 303.27 3.804C303.742 3.46 304.314 3.288 304.986 3.288C305.658 3.288 306.226 3.46 306.69 3.804C307.162 4.148 307.518 4.652 307.758 5.316C308.006 5.98 308.13 6.792 308.13 7.752C308.13 8.696 308.006 9.5 307.758 10.164C307.518 10.828 307.162 11.332 306.69 11.676C306.226 12.02 305.658 12.192 304.986 12.192ZM304.986 11.184C305.426 11.184 305.798 11.056 306.102 10.8C306.414 10.536 306.65 10.148 306.81 9.636C306.97 9.124 307.05 8.496 307.05 7.752C307.05 7.008 306.97 6.38 306.81 5.868C306.65 5.348 306.414 4.956 306.102 4.692C305.798 4.428 305.426 4.296 304.986 4.296C304.546 4.296 304.17 4.428 303.858 4.692C303.554 4.956 303.322 5.348 303.162 5.868C303.002 6.38 302.922 7.008 302.922 7.752C302.922 8.496 303.002 9.124 303.162 9.636C303.322 10.148 303.554 10.536 303.858 10.8C304.17 11.056 304.546 11.184 304.986 11.184ZM309.421 12V3.48H310.885L313.909 10.824V3.48H314.941V12H313.477L310.453 4.656V12H309.421ZM319.4 12.192C318.72 12.192 318.144 12.012 317.672 11.652C317.2 11.292 316.84 10.78 316.592 10.116C316.352 9.452 316.232 8.664 316.232 7.752C316.232 6.832 316.352 6.04 316.592 5.376C316.84 4.712 317.2 4.2 317.672 3.84C318.144 3.472 318.72 3.288 319.4 3.288C320.152 3.288 320.792 3.536 321.32 4.032C321.848 4.52 322.2 5.204 322.376 6.084L321.272 6.156C321.136 5.54 320.9 5.076 320.564 4.764C320.236 4.452 319.848 4.296 319.4 4.296C318.944 4.296 318.56 4.432 318.248 4.704C317.944 4.968 317.712 5.36 317.552 5.88C317.392 6.392 317.312 7.016 317.312 7.752C317.312 8.48 317.392 9.1 317.552 9.612C317.712 10.124 317.944 10.516 318.248 10.788C318.56 11.052 318.944 11.184 319.4 11.184C319.896 11.184 320.316 11.012 320.66 10.668C321.004 10.324 321.236 9.812 321.356 9.132L322.448 9.192C322.296 10.128 321.952 10.864 321.416 11.4C320.88 11.928 320.208 12.192 319.4 12.192ZM324.052 12V3.48H329.236V4.488H325.084V7.236H329.092V8.22H325.084V10.992H329.332V12H324.052ZM331.247 12V3.48H333.839C334.431 3.48 334.947 3.584 335.387 3.792C335.827 4 336.167 4.3 336.407 4.692C336.647 5.076 336.767 5.54 336.767 6.084C336.767 6.628 336.647 7.096 336.407 7.488C336.167 7.872 335.827 8.168 335.387 8.376C334.947 8.584 334.431 8.688 333.839 8.688H332.279V12H331.247ZM332.279 7.68H333.719C334.391 7.68 334.887 7.544 335.207 7.272C335.527 6.992 335.687 6.596 335.687 6.084C335.687 5.564 335.527 5.168 335.207 4.896C334.887 4.624 334.391 4.488 333.719 4.488H332.279V7.68ZM340.446 12V4.488H337.842V3.48H344.082V4.488H341.478V12H340.446Z" fill="#171717"/>
<path d="M587.075 12V3.48H589.667C590.259 3.48 590.775 3.584 591.215 3.792C591.655 4 591.995 4.3 592.235 4.692C592.475 5.076 592.595 5.54 592.595 6.084C592.595 6.628 592.475 7.096 592.235 7.488C591.995 7.872 591.655 8.168 591.215 8.376C590.775 8.584 590.259 8.688 589.667 8.688H588.107V12H587.075ZM588.107 7.68H589.547C590.219 7.68 590.715 7.544 591.035 7.272C591.355 6.992 591.515 6.596 591.515 6.084C591.515 5.564 591.355 5.168 591.035 4.896C590.715 4.624 590.219 4.488 589.547 4.488H588.107V7.68ZM594.03 12V3.48H596.622C597.518 3.48 598.226 3.708 598.746 4.164C599.266 4.612 599.526 5.232 599.526 6.024C599.526 6.424 599.434 6.78 599.25 7.092C599.066 7.396 598.83 7.636 598.542 7.812C598.254 7.988 597.958 8.088 597.654 8.112L597.606 7.968C598.174 8 598.598 8.136 598.878 8.376C599.166 8.616 599.334 9.008 599.382 9.552L599.598 12H598.566L598.362 9.684C598.338 9.42 598.274 9.208 598.17 9.048C598.074 8.88 597.918 8.76 597.702 8.688C597.494 8.608 597.206 8.568 596.838 8.568H595.062V12H594.03ZM595.062 7.56H596.622C597.214 7.56 597.666 7.428 597.978 7.164C598.29 6.892 598.446 6.512 598.446 6.024C598.446 5.528 598.29 5.148 597.978 4.884C597.666 4.62 597.214 4.488 596.622 4.488H595.062V7.56ZM603.986 12.192C603.314 12.192 602.742 12.02 602.27 11.676C601.806 11.332 601.45 10.828 601.202 10.164C600.962 9.5 600.842 8.696 600.842 7.752C600.842 6.792 600.962 5.98 601.202 5.316C601.45 4.652 601.806 4.148 602.27 3.804C602.742 3.46 603.314 3.288 603.986 3.288C604.658 3.288 605.226 3.46 605.69 3.804C606.162 4.148 606.518 4.652 606.758 5.316C607.006 5.98 607.13 6.792 607.13 7.752C607.13 8.696 607.006 9.5 606.758 10.164C606.518 10.828 606.162 11.332 605.69 11.676C605.226 12.02 604.658 12.192 603.986 12.192ZM603.986 11.184C604.426 11.184 604.798 11.056 605.102 10.8C605.414 10.536 605.65 10.148 605.81 9.636C605.97 9.124 606.05 8.496 606.05 7.752C606.05 7.008 605.97 6.38 605.81 5.868C605.65 5.348 605.414 4.956 605.102 4.692C604.798 4.428 604.426 4.296 603.986 4.296C603.546 4.296 603.17 4.428 602.858 4.692C602.554 4.956 602.322 5.348 602.162 5.868C602.002 6.38 601.922 7.008 601.922 7.752C601.922 8.496 602.002 9.124 602.162 9.636C602.322 10.148 602.554 10.536 602.858 10.8C603.17 11.056 603.546 11.184 603.986 11.184ZM610.665 12V4.488H608.061V3.48H614.301V4.488H611.697V12H610.665ZM618.376 12.192C617.704 12.192 617.132 12.02 616.66 11.676C616.196 11.332 615.84 10.828 615.592 10.164C615.352 9.5 615.232 8.696 615.232 7.752C615.232 6.792 615.352 5.98 615.592 5.316C615.84 4.652 616.196 4.148 616.66 3.804C617.132 3.46 617.704 3.288 618.376 3.288C619.048 3.288 619.616 3.46 620.08 3.804C620.552 4.148 620.908 4.652 621.148 5.316C621.396 5.98 621.52 6.792 621.52 7.752C621.52 8.696 621.396 9.5 621.148 10.164C620.908 10.828 620.552 11.332 620.08 11.676C619.616 12.02 619.048 12.192 618.376 12.192ZM618.376 11.184C618.816 11.184 619.188 11.056 619.492 10.8C619.804 10.536 620.04 10.148 620.2 9.636C620.36 9.124 620.44 8.496 620.44 7.752C620.44 7.008 620.36 6.38 620.2 5.868C620.04 5.348 619.804 4.956 619.492 4.692C619.188 4.428 618.816 4.296 618.376 4.296C617.936 4.296 617.56 4.428 617.248 4.692C616.944 4.956 616.712 5.348 616.552 5.868C616.392 6.38 616.312 7.008 616.312 7.752C616.312 8.496 616.392 9.124 616.552 9.636C616.712 10.148 616.944 10.536 617.248 10.8C617.56 11.056 617.936 11.184 618.376 11.184ZM625.056 12V4.488H622.452V3.48H628.692V4.488H626.088V12H625.056ZM630.127 12V10.992H632.251V4.488H630.127V3.48H635.407V4.488H633.283V10.992H635.407V12H630.127ZM637.442 12V3.48H640.034C640.626 3.48 641.142 3.584 641.582 3.792C642.022 4 642.362 4.3 642.602 4.692C642.842 5.076 642.962 5.54 642.962 6.084C642.962 6.628 642.842 7.096 642.602 7.488C642.362 7.872 642.022 8.168 641.582 8.376C641.142 8.584 640.626 8.688 640.034 8.688H638.474V12H637.442ZM638.474 7.68H639.914C640.586 7.68 641.082 7.544 641.402 7.272C641.722 6.992 641.882 6.596 641.882 6.084C641.882 5.564 641.722 5.168 641.402 4.896C641.082 4.624 640.586 4.488 639.914 4.488H638.474V7.68ZM647.158 12.192C646.486 12.192 645.914 12.02 645.442 11.676C644.978 11.332 644.622 10.828 644.374 10.164C644.134 9.5 644.014 8.696 644.014 7.752C644.014 6.792 644.134 5.98 644.374 5.316C644.622 4.652 644.978 4.148 645.442 3.804C645.914 3.46 646.486 3.288 647.158 3.288C647.83 3.288 648.398 3.46 648.862 3.804C649.334 4.148 649.69 4.652 649.93 5.316C650.178 5.98 650.302 6.792 650.302 7.752C650.302 8.696 650.178 9.5 649.93 10.164C649.69 10.828 649.334 11.332 648.862 11.676C648.398 12.02 647.83 12.192 647.158 12.192ZM647.158 11.184C647.598 11.184 647.97 11.056 648.274 10.8C648.586 10.536 648.822 10.148 648.982 9.636C649.142 9.124 649.222 8.496 649.222 7.752C649.222 7.008 649.142 6.38 648.982 5.868C648.822 5.348 648.586 4.956 648.274 4.692C647.97 4.428 647.598 4.296 647.158 4.296C646.718 4.296 646.342 4.428 646.03 4.692C645.726 4.956 645.494 5.348 645.334 5.868C645.174 6.38 645.094 7.008 645.094 7.752C645.094 8.496 645.174 9.124 645.334 9.636C645.494 10.148 645.726 10.536 646.03 10.8C646.342 11.056 646.718 11.184 647.158 11.184Z" fill="#171717"/>
<path d="M444.325 12.192C443.725 12.192 443.193 12.068 442.729 11.82C442.265 11.572 441.893 11.232 441.613 10.8C441.333 10.36 441.169 9.852 441.121 9.276L442.201 9.204C442.257 9.628 442.377 9.988 442.561 10.284C442.753 10.58 442.997 10.804 443.293 10.956C443.597 11.108 443.949 11.184 444.349 11.184C444.749 11.184 445.085 11.136 445.357 11.04C445.629 10.936 445.833 10.788 445.969 10.596C446.113 10.396 446.185 10.16 446.185 9.888C446.185 9.616 446.121 9.38 445.993 9.18C445.873 8.972 445.641 8.78 445.297 8.604C444.961 8.428 444.461 8.248 443.797 8.064C443.205 7.896 442.725 7.712 442.357 7.512C441.997 7.312 441.733 7.068 441.565 6.78C441.405 6.492 441.325 6.136 441.325 5.712C441.325 5.232 441.437 4.812 441.661 4.452C441.893 4.084 442.221 3.8 442.645 3.6C443.069 3.392 443.573 3.288 444.157 3.288C444.741 3.288 445.241 3.408 445.657 3.648C446.073 3.88 446.401 4.2 446.641 4.608C446.889 5.016 447.045 5.48 447.109 6L446.029 6.072C445.981 5.728 445.881 5.424 445.729 5.16C445.577 4.888 445.369 4.676 445.105 4.524C444.841 4.372 444.517 4.296 444.133 4.296C443.605 4.296 443.185 4.424 442.873 4.68C442.561 4.928 442.405 5.256 442.405 5.664C442.405 5.928 442.461 6.148 442.573 6.324C442.693 6.492 442.901 6.644 443.197 6.78C443.493 6.908 443.909 7.048 444.445 7.2C445.141 7.392 445.693 7.608 446.101 7.848C446.517 8.088 446.813 8.376 446.989 8.712C447.173 9.04 447.265 9.44 447.265 9.912C447.265 10.36 447.141 10.756 446.893 11.1C446.645 11.444 446.301 11.712 445.861 11.904C445.421 12.096 444.909 12.192 444.325 12.192ZM450.716 12L448.148 3.48H449.252L451.532 11.328H451.244L453.524 3.48H454.628L452.06 12H450.716ZM455.943 12V10.992H458.067V4.488H455.943V3.48H461.223V4.488H459.099V10.992H461.223V12H455.943ZM463.379 12V3.48H464.411V11.52L463.895 10.992H468.659V12H463.379ZM472.974 12.192C472.078 12.192 471.374 11.908 470.862 11.34C470.35 10.772 470.094 10 470.094 9.024V3.48H471.126V9.024C471.126 9.728 471.282 10.264 471.594 10.632C471.914 11 472.374 11.184 472.974 11.184C473.574 11.184 474.03 11 474.342 10.632C474.662 10.264 474.822 9.728 474.822 9.024V3.48H475.854V9.024C475.854 10 475.598 10.772 475.086 11.34C474.574 11.908 473.87 12.192 472.974 12.192ZM477.649 12V3.48H480.241C480.833 3.48 481.349 3.584 481.789 3.792C482.229 4 482.569 4.3 482.809 4.692C483.049 5.076 483.169 5.54 483.169 6.084C483.169 6.628 483.049 7.096 482.809 7.488C482.569 7.872 482.229 8.168 481.789 8.376C481.349 8.584 480.833 8.688 480.241 8.688H478.681V12H477.649ZM478.681 7.68H480.121C480.793 7.68 481.289 7.544 481.609 7.272C481.929 6.992 482.089 6.596 482.089 6.084C482.089 5.564 481.929 5.168 481.609 4.896C481.289 4.624 480.793 4.488 480.121 4.488H478.681V7.68ZM484.845 12V3.48H487.437C488.029 3.48 488.545 3.584 488.985 3.792C489.425 4 489.765 4.3 490.005 4.692C490.245 5.076 490.365 5.54 490.365 6.084C490.365 6.628 490.245 7.096 490.005 7.488C489.765 7.872 489.425 8.168 488.985 8.376C488.545 8.584 488.029 8.688 487.437 8.688H485.877V12H484.845ZM485.877 7.68H487.317C487.989 7.68 488.485 7.544 488.805 7.272C489.125 6.992 489.285 6.596 489.285 6.084C489.285 5.564 489.125 5.168 488.805 4.896C488.485 4.624 487.989 4.488 487.317 4.488H485.877V7.68ZM494.56 12.192C493.888 12.192 493.316 12.02 492.844 11.676C492.38 11.332 492.024 10.828 491.776 10.164C491.536 9.5 491.416 8.696 491.416 7.752C491.416 6.792 491.536 5.98 491.776 5.316C492.024 4.652 492.38 4.148 492.844 3.804C493.316 3.46 493.888 3.288 494.56 3.288C495.232 3.288 495.8 3.46 496.264 3.804C496.736 4.148 497.092 4.652 497.332 5.316C497.58 5.98 497.704 6.792 497.704 7.752C497.704 8.696 497.58 9.5 497.332 10.164C497.092 10.828 496.736 11.332 496.264 11.676C495.8 12.02 495.232 12.192 494.56 12.192ZM494.56 11.184C495 11.184 495.372 11.056 495.676 10.8C495.988 10.536 496.224 10.148 496.384 9.636C496.544 9.124 496.624 8.496 496.624 7.752C496.624 7.008 496.544 6.38 496.384 5.868C496.224 5.348 495.988 4.956 495.676 4.692C495.372 4.428 495 4.296 494.56 4.296C494.12 4.296 493.744 4.428 493.432 4.692C493.128 4.956 492.896 5.348 492.736 5.868C492.576 6.38 492.496 7.008 492.496 7.752C492.496 8.496 492.576 9.124 492.736 9.636C492.896 10.148 493.128 10.536 493.432 10.8C493.744 11.056 494.12 11.184 494.56 11.184Z" fill="#171717"/>
<path d="M734.477 12V3.48H737.069C737.661 3.48 738.177 3.584 738.617 3.792C739.057 4 739.397 4.3 739.637 4.692C739.877 5.076 739.997 5.54 739.997 6.084C739.997 6.628 739.877 7.096 739.637 7.488C739.397 7.872 739.057 8.168 738.617 8.376C738.177 8.584 737.661 8.688 737.069 8.688H735.509V12H734.477ZM735.509 7.68H736.949C737.621 7.68 738.117 7.544 738.437 7.272C738.757 6.992 738.917 6.596 738.917 6.084C738.917 5.564 738.757 5.168 738.437 4.896C738.117 4.624 737.621 4.488 736.949 4.488H735.509V7.68ZM741.433 12V3.48H744.025C744.921 3.48 745.629 3.708 746.149 4.164C746.669 4.612 746.929 5.232 746.929 6.024C746.929 6.424 746.837 6.78 746.653 7.092C746.469 7.396 746.233 7.636 745.945 7.812C745.657 7.988 745.361 8.088 745.057 8.112L745.009 7.968C745.577 8 746.001 8.136 746.281 8.376C746.569 8.616 746.737 9.008 746.785 9.552L747.001 12H745.969L745.765 9.684C745.741 9.42 745.677 9.208 745.573 9.048C745.477 8.88 745.321 8.76 745.105 8.688C744.897 8.608 744.609 8.568 744.241 8.568H742.465V12H741.433ZM742.465 7.56H744.025C744.617 7.56 745.069 7.428 745.381 7.164C745.693 6.892 745.849 6.512 745.849 6.024C745.849 5.528 745.693 5.148 745.381 4.884C745.069 4.62 744.617 4.488 744.025 4.488H742.465V7.56ZM751.388 12.192C750.716 12.192 750.144 12.02 749.672 11.676C749.208 11.332 748.852 10.828 748.604 10.164C748.364 9.5 748.244 8.696 748.244 7.752C748.244 6.792 748.364 5.98 748.604 5.316C748.852 4.652 749.208 4.148 749.672 3.804C750.144 3.46 750.716 3.288 751.388 3.288C752.06 3.288 752.628 3.46 753.092 3.804C753.564 4.148 753.92 4.652 754.16 5.316C754.408 5.98 754.532 6.792 754.532 7.752C754.532 8.696 754.408 9.5 754.16 10.164C753.92 10.828 753.564 11.332 753.092 11.676C752.628 12.02 752.06 12.192 751.388 12.192ZM751.388 11.184C751.828 11.184 752.2 11.056 752.504 10.8C752.816 10.536 753.052 10.148 753.212 9.636C753.372 9.124 753.452 8.496 753.452 7.752C753.452 7.008 753.372 6.38 753.212 5.868C753.052 5.348 752.816 4.956 752.504 4.692C752.2 4.428 751.828 4.296 751.388 4.296C750.948 4.296 750.572 4.428 750.26 4.692C749.956 4.956 749.724 5.348 749.564 5.868C749.404 6.38 749.324 7.008 749.324 7.752C749.324 8.496 749.404 9.124 749.564 9.636C749.724 10.148 749.956 10.536 750.26 10.8C750.572 11.056 750.948 11.184 751.388 11.184ZM756.063 12V3.48H758.079C758.815 3.48 759.455 3.648 759.999 3.984C760.551 4.312 760.975 4.796 761.271 5.436C761.575 6.068 761.727 6.84 761.727 7.752C761.727 8.664 761.575 9.436 761.271 10.068C760.975 10.7 760.551 11.18 759.999 11.508C759.455 11.836 758.815 12 758.079 12H756.063ZM757.095 10.992H758.019C758.851 10.992 759.495 10.724 759.951 10.188C760.415 9.644 760.647 8.832 760.647 7.752C760.647 6.672 760.415 5.86 759.951 5.316C759.495 4.764 758.851 4.488 758.019 4.488H757.095V10.992ZM765.779 12.192C764.883 12.192 764.179 11.908 763.667 11.34C763.155 10.772 762.899 10 762.899 9.024V3.48H763.931V9.024C763.931 9.728 764.087 10.264 764.399 10.632C764.719 11 765.179 11.184 765.779 11.184C766.379 11.184 766.835 11 767.147 10.632C767.467 10.264 767.627 9.728 767.627 9.024V3.48H768.659V9.024C768.659 10 768.403 10.772 767.891 11.34C767.379 11.908 766.675 12.192 765.779 12.192ZM769.974 12V10.968L774.726 4.488H770.19V3.48H775.878V4.512L771.126 10.992H775.974V12H769.974ZM777.529 12V10.992H779.653V4.488H777.529V3.48H782.809V4.488H780.685V10.992H782.809V12H777.529ZM787.365 12.192C786.693 12.192 786.121 12.02 785.649 11.676C785.185 11.332 784.829 10.828 784.581 10.164C784.341 9.5 784.221 8.696 784.221 7.752C784.221 6.792 784.341 5.98 784.581 5.316C784.829 4.652 785.185 4.148 785.649 3.804C786.121 3.46 786.693 3.288 787.365 3.288C788.037 3.288 788.605 3.46 789.069 3.804C789.541 4.148 789.897 4.652 790.137 5.316C790.385 5.98 790.509 6.792 790.509 7.752C790.509 8.696 790.385 9.5 790.137 10.164C789.897 10.828 789.541 11.332 789.069 11.676C788.605 12.02 788.037 12.192 787.365 12.192ZM787.365 11.184C787.805 11.184 788.177 11.056 788.481 10.8C788.793 10.536 789.029 10.148 789.189 9.636C789.349 9.124 789.429 8.496 789.429 7.752C789.429 7.008 789.349 6.38 789.189 5.868C789.029 5.348 788.793 4.956 788.481 4.692C788.177 4.428 787.805 4.296 787.365 4.296C786.925 4.296 786.549 4.428 786.237 4.692C785.933 4.956 785.701 5.348 785.541 5.868C785.381 6.38 785.301 7.008 785.301 7.752C785.301 8.496 785.381 9.124 785.541 9.636C785.701 10.148 785.933 10.536 786.237 10.8C786.549 11.056 786.925 11.184 787.365 11.184ZM791.8 12V3.48H793.264L796.288 10.824V3.48H797.32V12H795.856L792.832 4.656V12H791.8ZM799.235 12V3.48H804.419V4.488H800.267V7.236H804.275V8.22H800.267V10.992H804.515V12H799.235Z" fill="#171717"/>
<path d="M897.334 11.04L895.726 4.44H895.822V12H894.79V3.48H896.35L898.03 10.488H897.55L899.23 3.48H900.79V12H899.758V4.44H899.854L898.246 11.04H897.334ZM902.466 12V3.48H907.65V4.488H903.498V7.236H907.506V8.22H903.498V10.992H907.746V12H902.466ZM909.421 12V3.48H912.013C912.909 3.48 913.617 3.708 914.137 4.164C914.657 4.612 914.917 5.232 914.917 6.024C914.917 6.424 914.825 6.78 914.641 7.092C914.457 7.396 914.221 7.636 913.933 7.812C913.645 7.988 913.349 8.088 913.045 8.112L912.997 7.968C913.565 8 913.989 8.136 914.269 8.376C914.557 8.616 914.725 9.008 914.773 9.552L914.989 12H913.957L913.753 9.684C913.729 9.42 913.665 9.208 913.561 9.048C913.465 8.88 913.309 8.76 913.093 8.688C912.885 8.608 912.597 8.568 912.229 8.568H910.453V12H909.421ZM910.453 7.56H912.013C912.605 7.56 913.057 7.428 913.369 7.164C913.681 6.892 913.837 6.512 913.837 6.024C913.837 5.528 913.681 5.148 913.369 4.884C913.057 4.62 912.605 4.488 912.013 4.488H910.453V7.56ZM919.4 12.192C918.72 12.192 918.144 12.012 917.672 11.652C917.2 11.292 916.84 10.78 916.592 10.116C916.352 9.452 916.232 8.664 916.232 7.752C916.232 6.832 916.352 6.04 916.592 5.376C916.84 4.712 917.2 4.2 917.672 3.84C918.144 3.472 918.72 3.288 919.4 3.288C920.152 3.288 920.792 3.536 921.32 4.032C921.848 4.52 922.2 5.204 922.376 6.084L921.272 6.156C921.136 5.54 920.9 5.076 920.564 4.764C920.236 4.452 919.848 4.296 919.4 4.296C918.944 4.296 918.56 4.432 918.248 4.704C917.944 4.968 917.712 5.36 917.552 5.88C917.392 6.392 917.312 7.016 917.312 7.752C917.312 8.48 917.392 9.1 917.552 9.612C917.712 10.124 917.944 10.516 918.248 10.788C918.56 11.052 918.944 11.184 919.4 11.184C919.896 11.184 920.316 11.012 920.66 10.668C921.004 10.324 921.236 9.812 921.356 9.132L922.448 9.192C922.296 10.128 921.952 10.864 921.416 11.4C920.88 11.928 920.208 12.192 919.4 12.192ZM923.284 12L925.876 3.48H927.268L929.86 12H928.756L926.572 4.416L924.388 12H923.284ZM924.592 9.576L924.952 8.568H928.192L928.552 9.576H924.592ZM933.251 12V4.488H930.647V3.48H936.887V4.488H934.283V12H933.251ZM940.962 12.192C940.29 12.192 939.718 12.02 939.246 11.676C938.782 11.332 938.426 10.828 938.178 10.164C937.938 9.5 937.818 8.696 937.818 7.752C937.818 6.792 937.938 5.98 938.178 5.316C938.426 4.652 938.782 4.148 939.246 3.804C939.718 3.46 940.29 3.288 940.962 3.288C941.634 3.288 942.202 3.46 942.666 3.804C943.138 4.148 943.494 4.652 943.734 5.316C943.982 5.98 944.106 6.792 944.106 7.752C944.106 8.696 943.982 9.5 943.734 10.164C943.494 10.828 943.138 11.332 942.666 11.676C942.202 12.02 941.634 12.192 940.962 12.192ZM940.962 11.184C941.402 11.184 941.774 11.056 942.078 10.8C942.39 10.536 942.626 10.148 942.786 9.636C942.946 9.124 943.026 8.496 943.026 7.752C943.026 7.008 942.946 6.38 942.786 5.868C942.626 5.348 942.39 4.956 942.078 4.692C941.774 4.428 941.402 4.296 940.962 4.296C940.522 4.296 940.146 4.428 939.834 4.692C939.53 4.956 939.298 5.348 939.138 5.868C938.978 6.38 938.898 7.008 938.898 7.752C938.898 8.496 938.978 9.124 939.138 9.636C939.298 10.148 939.53 10.536 939.834 10.8C940.146 11.056 940.522 11.184 940.962 11.184Z" fill="#171717"/>
<path d="M1025.76 12V10.992H1027.88V4.488H1025.76V3.48H1031.04V4.488H1028.92V10.992H1031.04V12H1025.76ZM1032.84 12V3.48H1034.3L1037.32 10.824V3.48H1038.36V12H1036.89L1033.87 4.656V12H1032.84ZM1040.03 12V3.48H1041.49L1044.52 10.824V3.48H1045.55V12H1044.09L1041.06 4.656V12H1040.03ZM1049.99 12.192C1049.31 12.192 1048.74 12.02 1048.27 11.676C1047.81 11.332 1047.45 10.828 1047.2 10.164C1046.96 9.5 1046.84 8.696 1046.84 7.752C1046.84 6.792 1046.96 5.98 1047.2 5.316C1047.45 4.652 1047.81 4.148 1048.27 3.804C1048.74 3.46 1049.31 3.288 1049.99 3.288C1050.66 3.288 1051.23 3.46 1051.69 3.804C1052.16 4.148 1052.52 4.652 1052.76 5.316C1053.01 5.98 1053.13 6.792 1053.13 7.752C1053.13 8.696 1053.01 9.5 1052.76 10.164C1052.52 10.828 1052.16 11.332 1051.69 11.676C1051.23 12.02 1050.66 12.192 1049.99 12.192ZM1049.99 11.184C1050.43 11.184 1050.8 11.056 1051.1 10.8C1051.41 10.536 1051.65 10.148 1051.81 9.636C1051.97 9.124 1052.05 8.496 1052.05 7.752C1052.05 7.008 1051.97 6.38 1051.81 5.868C1051.65 5.348 1051.41 4.956 1051.1 4.692C1050.8 4.428 1050.43 4.296 1049.99 4.296C1049.55 4.296 1049.17 4.428 1048.86 4.692C1048.55 4.956 1048.32 5.348 1048.16 5.868C1048 6.38 1047.92 7.008 1047.92 7.752C1047.92 8.496 1048 9.124 1048.16 9.636C1048.32 10.148 1048.55 10.536 1048.86 10.8C1049.17 11.056 1049.55 11.184 1049.99 11.184ZM1056.51 12L1053.94 3.48H1055.05L1057.33 11.328H1057.04L1059.32 3.48H1060.42L1057.85 12H1056.51ZM1061.09 12L1063.68 3.48H1065.07L1067.66 12H1066.56L1064.38 4.416L1062.19 12H1061.09ZM1062.4 9.576L1062.76 8.568H1066L1066.36 9.576H1062.4ZM1068.57 12V10.968L1073.32 4.488H1068.79V3.48H1074.48V4.512L1069.72 10.992H1074.57V12H1068.57ZM1076.13 12V10.992H1078.25V4.488H1076.13V3.48H1081.41V4.488H1079.28V10.992H1081.41V12H1076.13ZM1085.96 12.192C1085.29 12.192 1084.72 12.02 1084.25 11.676C1083.78 11.332 1083.43 10.828 1083.18 10.164C1082.94 9.5 1082.82 8.696 1082.82 7.752C1082.82 6.792 1082.94 5.98 1083.18 5.316C1083.43 4.652 1083.78 4.148 1084.25 3.804C1084.72 3.46 1085.29 3.288 1085.96 3.288C1086.63 3.288 1087.2 3.46 1087.67 3.804C1088.14 4.148 1088.49 4.652 1088.73 5.316C1088.98 5.98 1089.11 6.792 1089.11 7.752C1089.11 8.696 1088.98 9.5 1088.73 10.164C1088.49 10.828 1088.14 11.332 1087.67 11.676C1087.2 12.02 1086.63 12.192 1085.96 12.192ZM1085.96 11.184C1086.4 11.184 1086.77 11.056 1087.08 10.8C1087.39 10.536 1087.63 10.148 1087.79 9.636C1087.95 9.124 1088.03 8.496 1088.03 7.752C1088.03 7.008 1087.95 6.38 1087.79 5.868C1087.63 5.348 1087.39 4.956 1087.08 4.692C1086.77 4.428 1086.4 4.296 1085.96 4.296C1085.52 4.296 1085.15 4.428 1084.83 4.692C1084.53 4.956 1084.3 5.348 1084.14 5.868C1083.98 6.38 1083.9 7.008 1083.9 7.752C1083.9 8.496 1083.98 9.124 1084.14 9.636C1084.3 10.148 1084.53 10.536 1084.83 10.8C1085.15 11.056 1085.52 11.184 1085.96 11.184ZM1090.4 12V3.48H1091.86L1094.89 10.824V3.48H1095.92V12H1094.45L1091.43 4.656V12H1090.4ZM1097.83 12V3.48H1103.02V4.488H1098.86V7.236H1102.87V8.22H1098.86V10.992H1103.11V12H1097.83Z" fill="#171717"/>
<path d="M1069.68 148C1074.93 148 1079.18 143.747 1079.18 138.5C1079.18 133.253 1074.93 129 1069.68 129C1064.44 129 1060.18 133.253 1060.18 138.5C1060.18 143.747 1064.44 148 1069.68 148Z" fill="#171717"/>
</svg>
