<?xml version="1.0" encoding="UTF-8"?>
<svg xmlns="http://www.w3.org/2000/svg" xmlns:xlink="http://www.w3.org/1999/xlink" viewBox="0 0 160 160">
  <defs>
    <style>
      .cls-1, .cls-2, .cls-3, .cls-4, .cls-5 {
        fill: none;
      }

      .cls-2 {
        stroke-dasharray: 1.99 1.99;
      }

      .cls-2, .cls-3, .cls-4 {
        stroke-width: .75px;
      }

      .cls-2, .cls-3, .cls-4, .cls-5 {
        stroke: #fff;
        stroke-miterlimit: 10;
      }

      .cls-6 {
        fill: #ac1357;
      }

      .cls-7 {
        fill: #5926ae;
      }

      .cls-8 {
        clip-path: url(#clippath-1);
      }

      .cls-9 {
        clip-path: url(#clippath-2);
      }

      .cls-10 {
        fill: #e3061d;
      }

      .cls-11 {
        fill: #fff;
      }

      .cls-4 {
        stroke-dasharray: 2;
      }

      .cls-12 {
        fill: #3d2dcb;
      }

      .cls-13 {
        fill: #742091;
      }

      .cls-14 {
        fill: red;
      }

      .cls-5 {
        stroke-width: 2px;
      }

      .cls-15 {
        fill: #2133e8;
      }

      .cls-16 {
        fill: #901a74;
      }

      .cls-17 {
        fill: #c80d3a;
      }
    </style>
    <clipPath id="clippath">
      <rect class="cls-1" x="-161.98" y="-160.1" width="152.8" height="152.8" rx="10" ry="10"/>
    </clipPath>
    <clipPath id="clippath-1">
      <rect class="cls-1" x="-162.98" y="4.03" width="152.8" height="152.8" rx="10" ry="10"/>
    </clipPath>
    <clipPath id="clippath-2">
      <rect class="cls-1" x="3.6" y="3.6" width="152.8" height="152.8" rx="10" ry="10"/>
    </clipPath>
  </defs>
  <rect width="160" height="160"/>
  <g id="Livello_1" data-name="Livello 1">
    <g class="cls-8">
      <circle class="cls-3" cx="-54.87" cy="48.71" r="65.14"/>
    </g>
    <g class="cls-9">
      <line class="cls-2" x1="-3.84" y1="163.84" x2="164.55" y2="-4.55"/>
      <circle class="cls-11" cx="126.1" cy="33.99" r="14.35"/>
      <g>
        <circle class="cls-15" cx="111.4" cy="48.6" r="14.35"/>
        <circle class="cls-12" cx="97.04" cy="62.96" r="14.35"/>
        <circle class="cls-7" cx="82.67" cy="77.33" r="14.35"/>
        <circle class="cls-13" cx="68.31" cy="91.69" r="14.35"/>
        <circle class="cls-16" cx="53.94" cy="106.05" r="14.35"/>
        <circle class="cls-6" cx="39.58" cy="120.42" r="14.35"/>
        <circle class="cls-17" cx="25.21" cy="134.78" r="14.35"/>
        <circle class="cls-10" cx="10.85" cy="149.15" r="14.35"/>
        <circle class="cls-14" cx="-3.51" cy="163.51" r="14.35"/>
      </g>
      <g>
        <circle class="cls-4" cx="48.28" cy="111.72" r="65.14"/>
        <circle class="cls-4" cx="80" cy="80" r="65.14"/>
        <circle class="cls-4" cx="111.72" cy="48.28" r="65.14"/>
      </g>
      <rect class="cls-5" x="3.6" y="3.6" width="152.8" height="152.8" rx="10" ry="10"/>
    </g>
  </g>
</svg>